G04*
G04 #@! TF.GenerationSoftware,Altium Limited,Altium Designer,25.4.2 (15)*
G04*
G04 Layer_Color=12632256*
%FSLAX44Y44*%
%MOMM*%
G71*
G04*
G04 #@! TF.SameCoordinates,EB978DBB-77F5-4BF1-8C58-C0B6FF9767F6*
G04*
G04*
G04 #@! TF.FilePolarity,Positive*
G04*
G01*
G75*
%ADD19R,1.9000X1.9000*%
%ADD56R,1.9000X1.9000*%
%ADD57C,1.9000*%
%ADD72R,1.7000X1.7000*%
%ADD73C,1.7000*%
%ADD74O,2.0000X1.6000*%
%ADD75R,2.0000X1.6000*%
G04:AMPARAMS|DCode=76|XSize=2mm|YSize=1.2mm|CornerRadius=0.3mm|HoleSize=0mm|Usage=FLASHONLY|Rotation=0.000|XOffset=0mm|YOffset=0mm|HoleType=Round|Shape=RoundedRectangle|*
%AMROUNDEDRECTD76*
21,1,2.0000,0.6000,0,0,0.0*
21,1,1.4000,1.2000,0,0,0.0*
1,1,0.6000,0.7000,-0.3000*
1,1,0.6000,-0.7000,-0.3000*
1,1,0.6000,-0.7000,0.3000*
1,1,0.6000,0.7000,0.3000*
%
%ADD76ROUNDEDRECTD76*%
%ADD77O,1.6000X2.0000*%
%ADD78R,1.6000X2.0000*%
%ADD79C,4.0000*%
%ADD80C,7.0000*%
%ADD81C,3.2000*%
D19*
X244242Y76696D02*
D03*
D56*
X670500Y267326D02*
D03*
D57*
Y312326D02*
D03*
X605500Y267326D02*
D03*
Y312326D02*
D03*
X199242Y76696D02*
D03*
X244242Y11696D02*
D03*
X199242D02*
D03*
D72*
X50800Y342000D02*
D03*
X18034Y461010D02*
D03*
Y381254D02*
D03*
D73*
X25400Y342000D02*
D03*
X50800Y316600D02*
D03*
X25400D02*
D03*
X43434Y461010D02*
D03*
X68834D02*
D03*
X18034Y486410D02*
D03*
X43434D02*
D03*
X68834D02*
D03*
Y406654D02*
D03*
X43434D02*
D03*
X18034D02*
D03*
X68834Y381254D02*
D03*
X43434D02*
D03*
D74*
X146000Y369800D02*
D03*
Y395200D02*
D03*
Y420600D02*
D03*
X665000Y426000D02*
D03*
Y451400D02*
D03*
D75*
X146000Y446000D02*
D03*
X665000Y476800D02*
D03*
D76*
X22355Y233492D02*
D03*
Y167492D02*
D03*
D77*
X187960Y508000D02*
D03*
X213360D02*
D03*
X238760D02*
D03*
X264160D02*
D03*
X289560D02*
D03*
X314960D02*
D03*
X340360D02*
D03*
X365760D02*
D03*
X391160D02*
D03*
X146000Y80000D02*
D03*
X171400D02*
D03*
X635000Y25400D02*
D03*
X609600D02*
D03*
X584200D02*
D03*
X558800D02*
D03*
X533400D02*
D03*
X457200Y508000D02*
D03*
X482600D02*
D03*
X508000D02*
D03*
X533400D02*
D03*
X558800D02*
D03*
X584200D02*
D03*
X609600D02*
D03*
X595376Y201422D02*
D03*
X569976D02*
D03*
X544576D02*
D03*
X519176D02*
D03*
X493776D02*
D03*
X468376D02*
D03*
X442976D02*
D03*
X417576D02*
D03*
X392176D02*
D03*
X366776D02*
D03*
X341376D02*
D03*
X315976D02*
D03*
X290576D02*
D03*
X620776Y125222D02*
D03*
X595376D02*
D03*
X569976D02*
D03*
X544576D02*
D03*
X519176D02*
D03*
X493776D02*
D03*
X468376D02*
D03*
X442976D02*
D03*
X417576D02*
D03*
X392176D02*
D03*
X366776D02*
D03*
X341376D02*
D03*
X315976D02*
D03*
X290576D02*
D03*
X304800Y25400D02*
D03*
X330200D02*
D03*
X355600D02*
D03*
X381000D02*
D03*
X406400D02*
D03*
X431800D02*
D03*
X457200D02*
D03*
D78*
X416560Y508000D02*
D03*
X120600Y80000D02*
D03*
X508000Y25400D02*
D03*
X635000Y508000D02*
D03*
X620776Y201422D02*
D03*
X279400Y25400D02*
D03*
D79*
X21000Y128000D02*
D03*
Y33000D02*
D03*
D80*
X660400Y366014D02*
D03*
X139700Y25400D02*
D03*
X659892Y77470D02*
D03*
D81*
X131826Y508508D02*
D03*
M02*
