G04*
G04 #@! TF.GenerationSoftware,Altium Limited,Altium Designer,25.4.2 (15)*
G04*
G04 Layer_Color=8388736*
%FSLAX44Y44*%
%MOMM*%
G71*
G04*
G04 #@! TF.SameCoordinates,EB978DBB-77F5-4BF1-8C58-C0B6FF9767F6*
G04*
G04*
G04 #@! TF.FilePolarity,Negative*
G04*
G01*
G75*
%ADD34R,1.8000X3.2000*%
%ADD35R,1.5000X1.1000*%
%ADD36R,1.1000X1.5000*%
%ADD37R,1.0000X1.0000*%
%ADD38R,0.7588X0.8858*%
%ADD39R,1.4500X0.5000*%
%ADD40R,2.1000X2.1000*%
%ADD41R,1.6000X1.8000*%
%ADD42R,0.9000X1.5000*%
%ADD43R,2.4000X1.0000*%
%ADD44R,1.5000X0.9000*%
%ADD45R,0.6700X1.6200*%
%ADD46R,1.6200X0.6700*%
%ADD47R,3.7000X2.4000*%
%ADD48R,0.8000X2.4000*%
%ADD49R,0.7500X1.2000*%
%ADD50R,2.7000X2.8000*%
%ADD51R,1.1000X0.8000*%
%ADD52C,3.0480*%
%ADD53R,2.8000X2.7000*%
%ADD54R,1.2000X0.7500*%
%ADD55R,0.8858X0.7588*%
%ADD56R,1.9000X1.9000*%
%ADD57C,1.9000*%
%ADD58O,2.2000X1.8000*%
%ADD59R,2.2000X1.8000*%
G04:AMPARAMS|DCode=60|XSize=2.2mm|YSize=1.4mm|CornerRadius=0.4mm|HoleSize=0mm|Usage=FLASHONLY|Rotation=0.000|XOffset=0mm|YOffset=0mm|HoleType=Round|Shape=RoundedRectangle|*
%AMROUNDEDRECTD60*
21,1,2.2000,0.6000,0,0,0.0*
21,1,1.4000,1.4000,0,0,0.0*
1,1,0.8000,0.7000,-0.3000*
1,1,0.8000,-0.7000,-0.3000*
1,1,0.8000,-0.7000,0.3000*
1,1,0.8000,0.7000,0.3000*
%
%ADD60ROUNDEDRECTD60*%
%ADD61O,1.8000X2.2000*%
%ADD62R,1.8000X2.2000*%
%ADD63C,4.2000*%
%ADD64C,7.2000*%
%ADD65C,3.4000*%
%ADD66C,2.1000*%
%ADD67R,2.1000X2.1000*%
%ADD68C,0.8000*%
D34*
X72000Y23000D02*
D03*
Y64000D02*
D03*
X72000Y98500D02*
D03*
Y139500D02*
D03*
D35*
X142240Y219100D02*
D03*
Y238100D02*
D03*
X646938Y206350D02*
D03*
Y187350D02*
D03*
X211328Y192888D02*
D03*
Y173888D02*
D03*
X218000Y321500D02*
D03*
Y302500D02*
D03*
X447000Y73000D02*
D03*
Y54000D02*
D03*
X221000Y238500D02*
D03*
Y219500D02*
D03*
X116000Y105000D02*
D03*
Y124000D02*
D03*
X220218Y96418D02*
D03*
Y115418D02*
D03*
X218694Y436016D02*
D03*
Y455016D02*
D03*
X197000Y219500D02*
D03*
Y238500D02*
D03*
X173000Y219500D02*
D03*
Y238500D02*
D03*
X638762Y461500D02*
D03*
Y480500D02*
D03*
X307594Y67920D02*
D03*
Y48920D02*
D03*
X353822Y67920D02*
D03*
Y48920D02*
D03*
X235458Y192990D02*
D03*
Y173990D02*
D03*
X245110Y115520D02*
D03*
Y96520D02*
D03*
D36*
X405500Y74000D02*
D03*
X424500D02*
D03*
X443500Y295000D02*
D03*
X462500D02*
D03*
X612496Y335788D02*
D03*
X593496D02*
D03*
X650900Y127762D02*
D03*
X669900D02*
D03*
X419500Y295000D02*
D03*
X400500D02*
D03*
X487500Y52000D02*
D03*
X468500D02*
D03*
X258968Y359732D02*
D03*
X239968D02*
D03*
X260468Y251732D02*
D03*
X241468D02*
D03*
X13360Y434848D02*
D03*
X32360D02*
D03*
X14134Y510570D02*
D03*
X33134D02*
D03*
X237896Y481838D02*
D03*
X256896D02*
D03*
X487500Y75000D02*
D03*
X468500D02*
D03*
X443500Y231000D02*
D03*
X462500D02*
D03*
X400152Y52324D02*
D03*
X381152D02*
D03*
X405500Y98000D02*
D03*
X424500D02*
D03*
X444500D02*
D03*
X463500D02*
D03*
X69952Y292862D02*
D03*
X50952D02*
D03*
X112116Y240538D02*
D03*
X93116D02*
D03*
D37*
X242436Y395224D02*
D03*
X257436D02*
D03*
X613290Y378460D02*
D03*
X598290D02*
D03*
X257436Y431546D02*
D03*
X242436D02*
D03*
X257436Y413258D02*
D03*
X242436D02*
D03*
D38*
X598808Y247794D02*
D03*
X623192D02*
D03*
D39*
X49105Y187492D02*
D03*
Y193992D02*
D03*
Y200492D02*
D03*
Y206992D02*
D03*
Y213492D02*
D03*
D40*
X22355Y188492D02*
D03*
Y212492D02*
D03*
X244242Y76696D02*
D03*
D41*
X46855Y168492D02*
D03*
Y232492D02*
D03*
D42*
X593242Y358648D02*
D03*
X612242D02*
D03*
X403500Y231000D02*
D03*
X422500D02*
D03*
X240182Y453136D02*
D03*
X259182D02*
D03*
X100940Y348234D02*
D03*
X81940D02*
D03*
X88500Y216000D02*
D03*
X107500D02*
D03*
X88500Y193000D02*
D03*
X107500D02*
D03*
X385014Y97282D02*
D03*
X366014D02*
D03*
X286360Y90678D02*
D03*
X267360D02*
D03*
X13868Y253746D02*
D03*
X32868D02*
D03*
X620500Y229286D02*
D03*
X601500D02*
D03*
X278354Y467503D02*
D03*
X297353D02*
D03*
X297607Y443627D02*
D03*
X278608D02*
D03*
X107500Y169000D02*
D03*
X88500D02*
D03*
D43*
X17000Y73000D02*
D03*
Y93000D02*
D03*
D44*
X172742Y388179D02*
D03*
Y369179D02*
D03*
X638000Y421500D02*
D03*
Y440500D02*
D03*
X330708Y46074D02*
D03*
Y65074D02*
D03*
X670560Y187350D02*
D03*
Y206350D02*
D03*
X647050Y226574D02*
D03*
Y245574D02*
D03*
X261112Y158344D02*
D03*
Y139344D02*
D03*
X91000Y283500D02*
D03*
Y264500D02*
D03*
X269240Y69444D02*
D03*
Y50444D02*
D03*
X29972Y274980D02*
D03*
Y293980D02*
D03*
X670560Y245466D02*
D03*
Y226466D02*
D03*
X218000Y263500D02*
D03*
Y282500D02*
D03*
X613410Y480416D02*
D03*
Y461416D02*
D03*
X590296Y480416D02*
D03*
Y461416D02*
D03*
X330708Y99670D02*
D03*
Y80670D02*
D03*
D45*
X182000Y258000D02*
D03*
X174000D02*
D03*
X166000D02*
D03*
X158000D02*
D03*
X150000D02*
D03*
X142000D02*
D03*
X134000D02*
D03*
X126000D02*
D03*
Y342000D02*
D03*
X134000D02*
D03*
X142000D02*
D03*
X150000D02*
D03*
X158000D02*
D03*
X166000D02*
D03*
X174000D02*
D03*
X182000D02*
D03*
D46*
X112000Y272000D02*
D03*
Y280000D02*
D03*
Y288000D02*
D03*
Y296000D02*
D03*
Y304000D02*
D03*
Y312000D02*
D03*
Y320000D02*
D03*
Y328000D02*
D03*
X196000D02*
D03*
Y320000D02*
D03*
Y312000D02*
D03*
Y304000D02*
D03*
Y296000D02*
D03*
Y280000D02*
D03*
Y272000D02*
D03*
Y288000D02*
D03*
D47*
X164000Y169000D02*
D03*
D48*
X189400Y107000D02*
D03*
X176700D02*
D03*
X164000D02*
D03*
X151300D02*
D03*
X138600D02*
D03*
D49*
X668020Y171958D02*
D03*
Y144958D02*
D03*
X649020D02*
D03*
Y171958D02*
D03*
X658520D02*
D03*
X60960Y248628D02*
D03*
X70460D02*
D03*
Y275628D02*
D03*
X51460D02*
D03*
Y248628D02*
D03*
D50*
X456500Y263000D02*
D03*
X407500D02*
D03*
D51*
X69000Y179500D02*
D03*
Y194500D02*
D03*
X70524Y213500D02*
D03*
Y228500D02*
D03*
D52*
X713914Y30842D02*
D03*
X74422Y515874D02*
D03*
X668020Y511556D02*
D03*
X667512Y19304D02*
D03*
D53*
X249968Y330232D02*
D03*
Y281232D02*
D03*
D54*
X171920Y445516D02*
D03*
Y436016D02*
D03*
X198920D02*
D03*
Y455016D02*
D03*
X171920D02*
D03*
X212306Y145288D02*
D03*
Y135788D02*
D03*
X239306D02*
D03*
Y154788D02*
D03*
X212306D02*
D03*
D55*
X9652Y272288D02*
D03*
Y296672D02*
D03*
D56*
X50800Y342000D02*
D03*
X18034Y461010D02*
D03*
Y381254D02*
D03*
D57*
X25400Y342000D02*
D03*
X50800Y316600D02*
D03*
X25400D02*
D03*
X43434Y461010D02*
D03*
X68834D02*
D03*
X18034Y486410D02*
D03*
X43434D02*
D03*
X68834D02*
D03*
Y406654D02*
D03*
X43434D02*
D03*
X18034D02*
D03*
X68834Y381254D02*
D03*
X43434D02*
D03*
D58*
X146000Y369800D02*
D03*
Y395200D02*
D03*
Y420600D02*
D03*
X665000Y426000D02*
D03*
Y451400D02*
D03*
D59*
X146000Y446000D02*
D03*
X665000Y476800D02*
D03*
D60*
X22355Y233492D02*
D03*
Y167492D02*
D03*
D61*
X187960Y508000D02*
D03*
X213360D02*
D03*
X238760D02*
D03*
X264160D02*
D03*
X289560D02*
D03*
X314960D02*
D03*
X340360D02*
D03*
X365760D02*
D03*
X391160D02*
D03*
X146000Y80000D02*
D03*
X171400D02*
D03*
X635000Y25400D02*
D03*
X609600D02*
D03*
X584200D02*
D03*
X558800D02*
D03*
X533400D02*
D03*
X457200Y508000D02*
D03*
X482600D02*
D03*
X508000D02*
D03*
X533400D02*
D03*
X558800D02*
D03*
X584200D02*
D03*
X609600D02*
D03*
X595376Y201422D02*
D03*
X569976D02*
D03*
X544576D02*
D03*
X519176D02*
D03*
X493776D02*
D03*
X468376D02*
D03*
X442976D02*
D03*
X417576D02*
D03*
X392176D02*
D03*
X366776D02*
D03*
X341376D02*
D03*
X315976D02*
D03*
X290576D02*
D03*
X620776Y125222D02*
D03*
X595376D02*
D03*
X569976D02*
D03*
X544576D02*
D03*
X519176D02*
D03*
X493776D02*
D03*
X468376D02*
D03*
X442976D02*
D03*
X417576D02*
D03*
X392176D02*
D03*
X366776D02*
D03*
X341376D02*
D03*
X315976D02*
D03*
X290576D02*
D03*
X304800Y25400D02*
D03*
X330200D02*
D03*
X355600D02*
D03*
X381000D02*
D03*
X406400D02*
D03*
X431800D02*
D03*
X457200D02*
D03*
D62*
X416560Y508000D02*
D03*
X120600Y80000D02*
D03*
X508000Y25400D02*
D03*
X635000Y508000D02*
D03*
X620776Y201422D02*
D03*
X279400Y25400D02*
D03*
D63*
X21000Y128000D02*
D03*
Y33000D02*
D03*
D64*
X660400Y366014D02*
D03*
X139700Y25400D02*
D03*
X659892Y77470D02*
D03*
D65*
X131826Y508508D02*
D03*
D66*
X670500Y312326D02*
D03*
X605500Y267326D02*
D03*
Y312326D02*
D03*
X199242Y76696D02*
D03*
X244242Y11696D02*
D03*
X199242D02*
D03*
D67*
X670500Y267326D02*
D03*
D68*
X215646Y475996D02*
D03*
X114300Y258064D02*
D03*
X150622Y275844D02*
D03*
X258826Y173228D02*
D03*
X199390Y426720D02*
D03*
X477266Y88646D02*
D03*
X384556Y72390D02*
D03*
X344932Y81534D02*
D03*
X291846Y70358D02*
D03*
X227838Y423672D02*
D03*
X217170Y417830D02*
D03*
X165100Y423672D02*
D03*
X44958Y435102D02*
D03*
X49530Y512064D02*
D03*
X60452Y278638D02*
D03*
X629158Y185166D02*
D03*
X173228Y188722D02*
D03*
X217170Y351790D02*
D03*
X202946Y123444D02*
D03*
X262890Y109474D02*
D03*
X208534Y206502D02*
D03*
X248158Y203708D02*
D03*
X58928Y218565D02*
D03*
X59944Y227838D02*
D03*
X628650Y105410D02*
D03*
X479806Y29972D02*
D03*
X315468Y450850D02*
D03*
X312674Y462534D02*
D03*
X130810Y319786D02*
D03*
X145034Y325120D02*
D03*
X499618Y169418D02*
D03*
X468122Y169164D02*
D03*
X89408Y118364D02*
D03*
X89154Y107188D02*
D03*
X564642Y415798D02*
D03*
X154178Y193548D02*
D03*
X119634Y193040D02*
D03*
X158496Y205740D02*
D03*
X119126Y215900D02*
D03*
X205232Y447294D02*
D03*
X565658Y406654D02*
D03*
X583692Y177292D02*
D03*
X563372Y427482D02*
D03*
X569214Y438912D02*
D03*
X662142Y158372D02*
D03*
X626110Y461264D02*
D03*
X327660Y178816D02*
D03*
X289709Y226870D02*
D03*
X303022Y178054D02*
D03*
X297434Y224790D02*
D03*
M02*
