G04*
G04 #@! TF.GenerationSoftware,Altium Limited,Altium Designer,25.4.2 (15)*
G04*
G04 Layer_Color=16711935*
%FSLAX44Y44*%
%MOMM*%
G71*
G04*
G04 #@! TF.SameCoordinates,EB978DBB-77F5-4BF1-8C58-C0B6FF9767F6*
G04*
G04*
G04 #@! TF.FilePolarity,Negative*
G04*
G01*
G75*
%ADD40R,2.1000X2.1000*%
%ADD56R,1.9000X1.9000*%
%ADD57C,1.9000*%
%ADD58O,2.2000X1.8000*%
%ADD59R,2.2000X1.8000*%
G04:AMPARAMS|DCode=60|XSize=2.2mm|YSize=1.4mm|CornerRadius=0.4mm|HoleSize=0mm|Usage=FLASHONLY|Rotation=0.000|XOffset=0mm|YOffset=0mm|HoleType=Round|Shape=RoundedRectangle|*
%AMROUNDEDRECTD60*
21,1,2.2000,0.6000,0,0,0.0*
21,1,1.4000,1.4000,0,0,0.0*
1,1,0.8000,0.7000,-0.3000*
1,1,0.8000,-0.7000,-0.3000*
1,1,0.8000,-0.7000,0.3000*
1,1,0.8000,0.7000,0.3000*
%
%ADD60ROUNDEDRECTD60*%
%ADD61O,1.8000X2.2000*%
%ADD62R,1.8000X2.2000*%
%ADD63C,4.2000*%
%ADD64C,7.2000*%
%ADD65C,3.4000*%
%ADD66C,2.1000*%
%ADD67R,2.1000X2.1000*%
%ADD68C,0.8000*%
D40*
X244242Y76696D02*
D03*
D56*
X50800Y342000D02*
D03*
X18034Y461010D02*
D03*
Y381254D02*
D03*
D57*
X25400Y342000D02*
D03*
X50800Y316600D02*
D03*
X25400D02*
D03*
X43434Y461010D02*
D03*
X68834D02*
D03*
X18034Y486410D02*
D03*
X43434D02*
D03*
X68834D02*
D03*
Y406654D02*
D03*
X43434D02*
D03*
X18034D02*
D03*
X68834Y381254D02*
D03*
X43434D02*
D03*
D58*
X146000Y369800D02*
D03*
Y395200D02*
D03*
Y420600D02*
D03*
X665000Y426000D02*
D03*
Y451400D02*
D03*
D59*
X146000Y446000D02*
D03*
X665000Y476800D02*
D03*
D60*
X22355Y233492D02*
D03*
Y167492D02*
D03*
D61*
X187960Y508000D02*
D03*
X213360D02*
D03*
X238760D02*
D03*
X264160D02*
D03*
X289560D02*
D03*
X314960D02*
D03*
X340360D02*
D03*
X365760D02*
D03*
X391160D02*
D03*
X146000Y80000D02*
D03*
X171400D02*
D03*
X635000Y25400D02*
D03*
X609600D02*
D03*
X584200D02*
D03*
X558800D02*
D03*
X533400D02*
D03*
X457200Y508000D02*
D03*
X482600D02*
D03*
X508000D02*
D03*
X533400D02*
D03*
X558800D02*
D03*
X584200D02*
D03*
X609600D02*
D03*
X595376Y201422D02*
D03*
X569976D02*
D03*
X544576D02*
D03*
X519176D02*
D03*
X493776D02*
D03*
X468376D02*
D03*
X442976D02*
D03*
X417576D02*
D03*
X392176D02*
D03*
X366776D02*
D03*
X341376D02*
D03*
X315976D02*
D03*
X290576D02*
D03*
X620776Y125222D02*
D03*
X595376D02*
D03*
X569976D02*
D03*
X544576D02*
D03*
X519176D02*
D03*
X493776D02*
D03*
X468376D02*
D03*
X442976D02*
D03*
X417576D02*
D03*
X392176D02*
D03*
X366776D02*
D03*
X341376D02*
D03*
X315976D02*
D03*
X290576D02*
D03*
X304800Y25400D02*
D03*
X330200D02*
D03*
X355600D02*
D03*
X381000D02*
D03*
X406400D02*
D03*
X431800D02*
D03*
X457200D02*
D03*
D62*
X416560Y508000D02*
D03*
X120600Y80000D02*
D03*
X508000Y25400D02*
D03*
X635000Y508000D02*
D03*
X620776Y201422D02*
D03*
X279400Y25400D02*
D03*
D63*
X21000Y128000D02*
D03*
Y33000D02*
D03*
D64*
X660400Y366014D02*
D03*
X139700Y25400D02*
D03*
X659892Y77470D02*
D03*
D65*
X131826Y508508D02*
D03*
D66*
X670500Y312326D02*
D03*
X605500Y267326D02*
D03*
Y312326D02*
D03*
X199242Y76696D02*
D03*
X244242Y11696D02*
D03*
X199242D02*
D03*
D67*
X670500Y267326D02*
D03*
D68*
X215646Y475996D02*
D03*
X114300Y258064D02*
D03*
X150622Y275844D02*
D03*
X258826Y173228D02*
D03*
X199390Y426720D02*
D03*
X477266Y88646D02*
D03*
X384556Y72390D02*
D03*
X344932Y81534D02*
D03*
X291846Y70358D02*
D03*
X227838Y423672D02*
D03*
X217170Y417830D02*
D03*
X165100Y423672D02*
D03*
X44958Y435102D02*
D03*
X49530Y512064D02*
D03*
X60452Y278638D02*
D03*
X629158Y185166D02*
D03*
X173228Y188722D02*
D03*
X217170Y351790D02*
D03*
X202946Y123444D02*
D03*
X262890Y109474D02*
D03*
X208534Y206502D02*
D03*
X248158Y203708D02*
D03*
X58928Y218565D02*
D03*
X59944Y227838D02*
D03*
X628650Y105410D02*
D03*
X479806Y29972D02*
D03*
X315468Y450850D02*
D03*
X312674Y462534D02*
D03*
X130810Y319786D02*
D03*
X145034Y325120D02*
D03*
X499618Y169418D02*
D03*
X468122Y169164D02*
D03*
X89408Y118364D02*
D03*
X89154Y107188D02*
D03*
X564642Y415798D02*
D03*
X154178Y193548D02*
D03*
X119634Y193040D02*
D03*
X158496Y205740D02*
D03*
X119126Y215900D02*
D03*
X205232Y447294D02*
D03*
X565658Y406654D02*
D03*
X583692Y177292D02*
D03*
X563372Y427482D02*
D03*
X569214Y438912D02*
D03*
X662142Y158372D02*
D03*
X626110Y461264D02*
D03*
X327660Y178816D02*
D03*
X289709Y226870D02*
D03*
X303022Y178054D02*
D03*
X297434Y224790D02*
D03*
M02*
