G04*
G04 #@! TF.GenerationSoftware,Altium Limited,Altium Designer,25.4.2 (15)*
G04*
G04 Layer_Physical_Order=2*
G04 Layer_Color=16711680*
%FSLAX44Y44*%
%MOMM*%
G71*
G04*
G04 #@! TF.SameCoordinates,EB978DBB-77F5-4BF1-8C58-C0B6FF9767F6*
G04*
G04*
G04 #@! TF.FilePolarity,Positive*
G04*
G01*
G75*
%ADD19R,1.9000X1.9000*%
%ADD56R,1.9000X1.9000*%
%ADD57C,1.9000*%
%ADD70C,0.4000*%
%ADD71C,0.3000*%
%ADD72R,1.7000X1.7000*%
%ADD73C,1.7000*%
%ADD74O,2.0000X1.6000*%
%ADD75R,2.0000X1.6000*%
G04:AMPARAMS|DCode=76|XSize=2mm|YSize=1.2mm|CornerRadius=0.3mm|HoleSize=0mm|Usage=FLASHONLY|Rotation=0.000|XOffset=0mm|YOffset=0mm|HoleType=Round|Shape=RoundedRectangle|*
%AMROUNDEDRECTD76*
21,1,2.0000,0.6000,0,0,0.0*
21,1,1.4000,1.2000,0,0,0.0*
1,1,0.6000,0.7000,-0.3000*
1,1,0.6000,-0.7000,-0.3000*
1,1,0.6000,-0.7000,0.3000*
1,1,0.6000,0.7000,0.3000*
%
%ADD76ROUNDEDRECTD76*%
%ADD77O,1.6000X2.0000*%
%ADD78R,1.6000X2.0000*%
%ADD79C,4.0000*%
%ADD80C,7.0000*%
%ADD81C,3.2000*%
%ADD82C,0.6000*%
D19*
X244242Y76696D02*
D03*
D56*
X670500Y267326D02*
D03*
D57*
Y312326D02*
D03*
X605500Y267326D02*
D03*
Y312326D02*
D03*
X199242Y76696D02*
D03*
X244242Y11696D02*
D03*
X199242D02*
D03*
D70*
X215646Y475996D02*
X259605D01*
X265701Y482092D01*
X150765Y285385D02*
X217170Y351790D01*
X150765Y275987D02*
Y285385D01*
X150622Y275844D02*
X150765Y275987D01*
X114300Y258064D02*
X114554D01*
X132334Y275844D01*
X150622D01*
X199390Y426720D02*
X199741Y427071D01*
X208390D02*
X209055Y427736D01*
X199741Y427071D02*
X208390D01*
X209055Y427736D02*
X217164D01*
X185766Y417830D02*
X217170D01*
X165100Y423672D02*
X179924D01*
X185766Y417830D01*
X227455Y424055D02*
X227838Y423672D01*
X217164Y427736D02*
X220845Y424055D01*
X227455D01*
X448289Y103135D02*
X462776D01*
X477266Y88646D01*
X448289Y103135D02*
X468376Y123222D01*
X262890Y109474D02*
X291846Y80518D01*
Y70358D02*
Y80518D01*
X333756Y70358D02*
X344932Y81534D01*
X291846Y70358D02*
X333756D01*
X344932Y81534D02*
X354076Y72390D01*
X384556D01*
X264160Y508000D02*
Y510000D01*
X245586Y528574D02*
X264160Y510000D01*
X177546Y528574D02*
X245586D01*
X174752Y525780D02*
X177546Y528574D01*
X174752Y485394D02*
Y525780D01*
X158242Y468884D02*
X174752Y485394D01*
X106426Y468884D02*
X158242D01*
X88900Y486410D02*
X106426Y468884D01*
X68834Y486410D02*
X88900D01*
X217170Y351790D02*
Y417830D01*
X55357Y435102D02*
X56334Y434125D01*
X44958Y435102D02*
X55357D01*
X56334Y434125D02*
Y473910D01*
X49530Y505714D02*
Y512064D01*
Y505714D02*
X68834Y486410D01*
X56334Y419154D02*
X68834Y406654D01*
X56334Y419154D02*
Y434125D01*
Y473910D02*
X68834Y486410D01*
X65366Y272503D02*
Y273183D01*
X60452Y278097D02*
X65366Y273183D01*
X60452Y278097D02*
Y278638D01*
X65366Y272503D02*
X83312Y290449D01*
X26355Y233492D02*
X65366Y272503D01*
X68834Y406654D02*
X83312Y392176D01*
Y290449D02*
Y392176D01*
X22355Y233492D02*
X26355D01*
X431800Y27400D02*
Y86646D01*
X602386Y158394D02*
X629158Y185166D01*
X499548Y158394D02*
X602386D01*
X468376Y127222D02*
X499548Y158394D01*
X468376Y125222D02*
Y127222D01*
X650240Y87122D02*
X659892Y77470D01*
X650240Y87122D02*
Y127000D01*
X672338Y149098D01*
Y239014D01*
X650748Y260604D02*
X672338Y239014D01*
X650748Y260604D02*
Y278624D01*
X668951Y296826D01*
Y310777D01*
X670500Y312326D01*
X442976Y152622D02*
X468376Y127222D01*
X442976Y152622D02*
Y201422D01*
X468376Y123222D02*
Y125222D01*
X431800Y86646D02*
X448289Y103135D01*
X536413Y77470D02*
X659892D01*
X490524Y31581D02*
X536413Y77470D01*
X490524Y30791D02*
Y31581D01*
X482705Y22972D02*
X490524Y30791D01*
X476907Y22972D02*
X482705D01*
X469538Y30340D02*
X476907Y22972D01*
X469538Y30340D02*
Y32032D01*
X462171Y39400D02*
X469538Y32032D01*
X443800Y39400D02*
X462171D01*
X431800Y27400D02*
X443800Y39400D01*
X431800Y25400D02*
Y27400D01*
X173228Y188722D02*
X190754D01*
X208534Y206502D01*
X179690Y100188D02*
X202946Y123444D01*
X75304Y100188D02*
X179690D01*
X47491Y128000D02*
X75304Y100188D01*
X21000Y128000D02*
X47491D01*
X58928Y148844D02*
Y227838D01*
Y148844D02*
X89408Y118364D01*
X247396Y123444D02*
X248158Y124206D01*
X202946Y123444D02*
X247396D01*
X247617Y203708D02*
X248158D01*
X244823Y206502D02*
X247617Y203708D01*
X208534Y206502D02*
X244823D01*
X142629Y64400D02*
X192446D01*
X231650Y25196D01*
X248158Y124206D02*
X262890Y109474D01*
X627380Y106680D02*
X628650Y105410D01*
X556514Y106680D02*
X627380D01*
X479806Y29972D02*
X556514Y106680D01*
X499364Y169164D02*
X499618Y169418D01*
X468122Y169164D02*
X499364D01*
X355600Y25400D02*
Y27400D01*
X343600Y39400D02*
X355600Y27400D01*
X256881Y39400D02*
X343600D01*
X206085Y90196D02*
X256881Y39400D01*
X198348Y90196D02*
X206085D01*
X194310Y94234D02*
X198348Y90196D01*
X183634Y94234D02*
X194310D01*
X171400Y82000D02*
X183634Y94234D01*
X171400Y80000D02*
Y82000D01*
X64548Y33000D02*
X74301Y23247D01*
X21000Y33000D02*
X64548D01*
X381000Y23400D02*
Y25400D01*
X369000Y11400D02*
X381000Y23400D01*
X269743Y11400D02*
X369000D01*
X255947Y25196D02*
X269743Y11400D01*
X231650Y25196D02*
X255947D01*
X135029Y72000D02*
X142629Y64400D01*
X126600Y72000D02*
X135029D01*
X120600Y78000D02*
X126600Y72000D01*
X120600Y78000D02*
Y80000D01*
X114600Y74000D02*
X120600Y80000D01*
X114600Y63546D02*
Y74000D01*
X74301Y23247D02*
X114600Y63546D01*
X89281Y107315D02*
Y118237D01*
X89408Y118364D01*
X89154Y107188D02*
X89281Y107315D01*
X265701Y482092D02*
X305054D01*
X310554Y476592D01*
X541433D01*
X576214Y441811D01*
Y436012D02*
Y441811D01*
X573366Y433164D02*
X576214Y436012D01*
X573366Y267963D02*
Y433164D01*
Y267963D02*
X583376Y257953D01*
Y177608D02*
Y257953D01*
Y177608D02*
X583692Y177292D01*
D71*
X258826Y173228D02*
X264382D01*
X290576Y199422D01*
Y201422D01*
X656510Y169887D02*
Y238586D01*
X655642Y150944D02*
Y169019D01*
X633276Y128578D02*
X655642Y150944D01*
X617459Y231648D02*
X649753D01*
X651510Y229891D01*
X621900Y280267D02*
X662142Y240025D01*
X655642Y169019D02*
X656510Y169887D01*
X630682Y151130D02*
X651510Y171958D01*
Y229891D01*
X583866Y311230D02*
X656510Y238586D01*
X662142Y158372D02*
Y240025D01*
X320571Y459101D02*
X325099Y463630D01*
X203984Y439350D02*
X530335D01*
X197714Y445620D02*
X203984Y439350D01*
X315468Y451251D02*
X320571Y456354D01*
Y459101D01*
X530335Y439350D02*
X562457Y407228D01*
X315468Y450850D02*
Y451251D01*
X312776Y444350D02*
X536090D01*
X205232Y447294D02*
X309832D01*
X312776Y444350D01*
X536090D02*
X564642Y415798D01*
X312674Y462534D02*
X313210D01*
X319306Y468630D02*
X539496D01*
X313210Y462534D02*
X319306Y468630D01*
X621900Y280267D02*
Y397948D01*
X583866Y311230D02*
Y428815D01*
X621900Y397948D02*
X626110Y402158D01*
Y461264D01*
X144000Y420600D02*
X146000D01*
X130810Y407410D02*
X144000Y420600D01*
X130810Y319786D02*
Y407410D01*
X145517Y369317D02*
X146000Y369800D01*
X145517Y325603D02*
Y369317D01*
X145034Y325120D02*
X145517Y325603D01*
X565084Y407228D02*
X565658Y406654D01*
X562457Y407228D02*
X565084D01*
X153670Y193040D02*
X154178Y193548D01*
X119634Y193040D02*
X153670D01*
X129286Y205740D02*
X158496D01*
X119126Y215900D02*
X129286Y205740D01*
X146380Y445620D02*
X197714D01*
X83844Y446000D02*
X146000D01*
X68834Y461010D02*
X83844Y446000D01*
X146000D02*
X146380Y445620D01*
X231768Y487592D02*
X275962D01*
X213360Y506000D02*
X231768Y487592D01*
X275145Y493846D02*
X284671D01*
X218123Y521500D02*
X226060Y513563D01*
X235905Y492592D02*
X273891D01*
X226060Y502436D02*
X235905Y492592D01*
X226060Y502436D02*
Y513563D01*
X273891Y492592D02*
X275145Y493846D01*
X277216Y488846D02*
X282600D01*
X275962Y487592D02*
X277216Y488846D01*
X208597Y521500D02*
X218123D01*
X284671Y493846D02*
X285925Y492592D01*
X282600Y488846D02*
X283854Y487592D01*
X307332D01*
X285925Y492592D02*
X309403D01*
X313807Y488188D01*
X307332Y487592D02*
X312832Y482092D01*
X546608D01*
X313807Y488188D02*
X551942D01*
X583866Y456264D01*
X539496Y468630D02*
X569214Y438912D01*
X583866Y449009D02*
Y456264D01*
X578866Y430886D02*
X581714Y433734D01*
Y444090D01*
X578866Y446938D02*
X581714Y444090D01*
X578866Y270241D02*
Y430886D01*
Y446938D02*
Y449834D01*
X586714Y431663D02*
Y446161D01*
X583866Y428815D02*
X586714Y431663D01*
X583866Y449009D02*
X586714Y446161D01*
X578866Y270241D02*
X617459Y231648D01*
X546608Y482092D02*
X578866Y449834D01*
X325099Y463630D02*
X527224D01*
X563372Y427482D01*
X595376Y125222D02*
Y127222D01*
X619284Y151130D01*
X630682D01*
X213360Y506000D02*
Y508000D01*
X201860Y514763D02*
X208597Y521500D01*
X187960Y508000D02*
X200103D01*
X201860Y509757D02*
Y514763D01*
X200103Y508000D02*
X201860Y509757D01*
X620776Y125222D02*
X624132Y128578D01*
X633276D01*
X327660Y178816D02*
Y208001D01*
X304371Y231290D02*
X327660Y208001D01*
X294742Y231290D02*
X304371D01*
X290321Y226870D02*
X294742Y231290D01*
X289709Y226870D02*
X290321D01*
X297434Y212827D02*
Y224790D01*
Y212827D02*
X303022Y207239D01*
Y178054D02*
Y207239D01*
D72*
X50800Y342000D02*
D03*
X18034Y461010D02*
D03*
Y381254D02*
D03*
D73*
X25400Y342000D02*
D03*
X50800Y316600D02*
D03*
X25400D02*
D03*
X43434Y461010D02*
D03*
X68834D02*
D03*
X18034Y486410D02*
D03*
X43434D02*
D03*
X68834D02*
D03*
Y406654D02*
D03*
X43434D02*
D03*
X18034D02*
D03*
X68834Y381254D02*
D03*
X43434D02*
D03*
D74*
X146000Y369800D02*
D03*
Y395200D02*
D03*
Y420600D02*
D03*
X665000Y426000D02*
D03*
Y451400D02*
D03*
D75*
X146000Y446000D02*
D03*
X665000Y476800D02*
D03*
D76*
X22355Y233492D02*
D03*
Y167492D02*
D03*
D77*
X187960Y508000D02*
D03*
X213360D02*
D03*
X238760D02*
D03*
X264160D02*
D03*
X289560D02*
D03*
X314960D02*
D03*
X340360D02*
D03*
X365760D02*
D03*
X391160D02*
D03*
X146000Y80000D02*
D03*
X171400D02*
D03*
X635000Y25400D02*
D03*
X609600D02*
D03*
X584200D02*
D03*
X558800D02*
D03*
X533400D02*
D03*
X457200Y508000D02*
D03*
X482600D02*
D03*
X508000D02*
D03*
X533400D02*
D03*
X558800D02*
D03*
X584200D02*
D03*
X609600D02*
D03*
X595376Y201422D02*
D03*
X569976D02*
D03*
X544576D02*
D03*
X519176D02*
D03*
X493776D02*
D03*
X468376D02*
D03*
X442976D02*
D03*
X417576D02*
D03*
X392176D02*
D03*
X366776D02*
D03*
X341376D02*
D03*
X315976D02*
D03*
X290576D02*
D03*
X620776Y125222D02*
D03*
X595376D02*
D03*
X569976D02*
D03*
X544576D02*
D03*
X519176D02*
D03*
X493776D02*
D03*
X468376D02*
D03*
X442976D02*
D03*
X417576D02*
D03*
X392176D02*
D03*
X366776D02*
D03*
X341376D02*
D03*
X315976D02*
D03*
X290576D02*
D03*
X304800Y25400D02*
D03*
X330200D02*
D03*
X355600D02*
D03*
X381000D02*
D03*
X406400D02*
D03*
X431800D02*
D03*
X457200D02*
D03*
D78*
X416560Y508000D02*
D03*
X120600Y80000D02*
D03*
X508000Y25400D02*
D03*
X635000Y508000D02*
D03*
X620776Y201422D02*
D03*
X279400Y25400D02*
D03*
D79*
X21000Y128000D02*
D03*
Y33000D02*
D03*
D80*
X660400Y366014D02*
D03*
X139700Y25400D02*
D03*
X659892Y77470D02*
D03*
D81*
X131826Y508508D02*
D03*
D82*
X215646Y475996D02*
D03*
X114300Y258064D02*
D03*
X150622Y275844D02*
D03*
X258826Y173228D02*
D03*
X199390Y426720D02*
D03*
X477266Y88646D02*
D03*
X384556Y72390D02*
D03*
X344932Y81534D02*
D03*
X291846Y70358D02*
D03*
X227838Y423672D02*
D03*
X217170Y417830D02*
D03*
X165100Y423672D02*
D03*
X44958Y435102D02*
D03*
X49530Y512064D02*
D03*
X60452Y278638D02*
D03*
X629158Y185166D02*
D03*
X173228Y188722D02*
D03*
X217170Y351790D02*
D03*
X202946Y123444D02*
D03*
X262890Y109474D02*
D03*
X208534Y206502D02*
D03*
X248158Y203708D02*
D03*
X58928Y218565D02*
D03*
X59944Y227838D02*
D03*
X628650Y105410D02*
D03*
X479806Y29972D02*
D03*
X315468Y450850D02*
D03*
X312674Y462534D02*
D03*
X130810Y319786D02*
D03*
X145034Y325120D02*
D03*
X499618Y169418D02*
D03*
X468122Y169164D02*
D03*
X89408Y118364D02*
D03*
X89154Y107188D02*
D03*
X564642Y415798D02*
D03*
X154178Y193548D02*
D03*
X119634Y193040D02*
D03*
X158496Y205740D02*
D03*
X119126Y215900D02*
D03*
X205232Y447294D02*
D03*
X565658Y406654D02*
D03*
X583692Y177292D02*
D03*
X563372Y427482D02*
D03*
X569214Y438912D02*
D03*
X662142Y158372D02*
D03*
X626110Y461264D02*
D03*
X327660Y178816D02*
D03*
X289709Y226870D02*
D03*
X303022Y178054D02*
D03*
X297434Y224790D02*
D03*
M02*
