G04*
G04 #@! TF.GenerationSoftware,Altium Limited,Altium Designer,25.4.2 (15)*
G04*
G04 Layer_Color=2752767*
%FSLAX44Y44*%
%MOMM*%
G71*
G04*
G04 #@! TF.SameCoordinates,EB978DBB-77F5-4BF1-8C58-C0B6FF9767F6*
G04*
G04*
G04 #@! TF.FilePolarity,Positive*
G04*
G01*
G75*
%ADD85C,0.1270*%
%ADD86C,0.1693*%
D85*
X45720Y336920D02*
Y347080D01*
X55880D01*
Y336920D01*
X45720D01*
X20320D02*
Y347080D01*
X30480D01*
Y336920D01*
X20320D01*
X45720Y311520D02*
Y321680D01*
X55880D01*
Y311520D01*
X45720D01*
X20320D02*
Y321680D01*
X30480D01*
Y311520D01*
X20320D01*
X140920Y364720D02*
Y374880D01*
X151080D01*
Y364720D01*
X140920D01*
Y390120D02*
Y400280D01*
X151080D01*
Y390120D01*
X140920D01*
Y415520D02*
Y425680D01*
X151080D01*
Y415520D01*
X140920D01*
Y440920D02*
Y451080D01*
X151080D01*
Y440920D01*
X140920D01*
X12954Y455930D02*
Y466090D01*
X23114D01*
Y455930D01*
X12954D01*
X38354D02*
Y466090D01*
X48514D01*
Y455930D01*
X38354D01*
X63754D02*
Y466090D01*
X73914D01*
Y455930D01*
X63754D01*
X12954Y481330D02*
Y491490D01*
X23114D01*
Y481330D01*
X12954D01*
X38354D02*
Y491490D01*
X48514D01*
Y481330D01*
X38354D01*
X63754D02*
Y491490D01*
X73914D01*
Y481330D01*
X63754D01*
X182880Y502920D02*
Y513080D01*
X193040D01*
Y502920D01*
X182880D01*
X208280D02*
Y513080D01*
X218440D01*
Y502920D01*
X208280D01*
X233680D02*
Y513080D01*
X243840D01*
Y502920D01*
X233680D01*
X259080D02*
Y513080D01*
X269240D01*
Y502920D01*
X259080D01*
X284480D02*
Y513080D01*
X294640D01*
Y502920D01*
X284480D01*
X309880D02*
Y513080D01*
X320040D01*
Y502920D01*
X309880D01*
X335280D02*
Y513080D01*
X345440D01*
Y502920D01*
X335280D01*
X360680D02*
Y513080D01*
X370840D01*
Y502920D01*
X360680D01*
X386080D02*
Y513080D01*
X396240D01*
Y502920D01*
X386080D01*
X411480D02*
Y513080D01*
X421640D01*
Y502920D01*
X411480D01*
X115520Y74920D02*
Y85080D01*
X125680D01*
Y74920D01*
X115520D01*
X140920D02*
Y85080D01*
X151080D01*
Y74920D01*
X140920D01*
X166320D02*
Y85080D01*
X176480D01*
Y74920D01*
X166320D01*
X21000Y122920D02*
X15920Y133080D01*
X26080D01*
X21000Y122920D01*
X629920Y20320D02*
Y30480D01*
X640080D01*
Y20320D01*
X629920D01*
X604520D02*
Y30480D01*
X614680D01*
Y20320D01*
X604520D01*
X579120D02*
Y30480D01*
X589280D01*
Y20320D01*
X579120D01*
X553720D02*
Y30480D01*
X563880D01*
Y20320D01*
X553720D01*
X528320D02*
Y30480D01*
X538480D01*
Y20320D01*
X528320D01*
X502920D02*
Y30480D01*
X513080D01*
Y20320D01*
X502920D01*
X452120Y502920D02*
Y513080D01*
X462280D01*
Y502920D01*
X452120D01*
X477520D02*
Y513080D01*
X487680D01*
Y502920D01*
X477520D01*
X502920D02*
Y513080D01*
X513080D01*
Y502920D01*
X502920D01*
X528320D02*
Y513080D01*
X538480D01*
Y502920D01*
X528320D01*
X553720D02*
Y513080D01*
X563880D01*
Y502920D01*
X553720D01*
X579120D02*
Y513080D01*
X589280D01*
Y502920D01*
X579120D01*
X604520D02*
Y513080D01*
X614680D01*
Y502920D01*
X604520D01*
X629920D02*
Y513080D01*
X640080D01*
Y502920D01*
X629920D01*
X655320Y360934D02*
X657860Y366014D01*
X655320Y371094D01*
X660400Y368554D01*
X665480Y371094D01*
X662940Y366014D01*
X665480Y360934D01*
X660400Y363474D01*
X655320Y360934D01*
X131826Y503428D02*
X134366Y505968D01*
X136906D01*
X134366Y508508D01*
X136906Y511048D01*
X134366D01*
X131826Y513588D01*
X129286Y511048D01*
X126746D01*
X129286Y508508D01*
X126746Y505968D01*
X129286D01*
X131826Y503428D01*
X667960Y309786D02*
Y307246D01*
X673040D01*
Y309786D01*
X675580D01*
Y314866D01*
X673040D01*
Y317406D01*
X667960D01*
Y314866D01*
X665420D01*
Y309786D01*
X667960D01*
X602960Y264786D02*
Y262246D01*
X608040D01*
Y264786D01*
X610580D01*
Y269866D01*
X608040D01*
Y272406D01*
X602960D01*
Y269866D01*
X600420D01*
Y264786D01*
X602960D01*
X667960D02*
Y262246D01*
X673040D01*
Y264786D01*
X675580D01*
Y269866D01*
X673040D01*
Y272406D01*
X667960D01*
Y269866D01*
X665420D01*
Y264786D01*
X667960D01*
X602960Y309786D02*
Y307246D01*
X608040D01*
Y309786D01*
X610580D01*
Y314866D01*
X608040D01*
Y317406D01*
X602960D01*
Y314866D01*
X600420D01*
Y309786D01*
X602960D01*
X615696Y196342D02*
Y206502D01*
X625856D01*
Y196342D01*
X615696D01*
X590296D02*
Y206502D01*
X600456D01*
Y196342D01*
X590296D01*
X564896D02*
Y206502D01*
X575056D01*
Y196342D01*
X564896D01*
X539496D02*
Y206502D01*
X549656D01*
Y196342D01*
X539496D01*
X514096D02*
Y206502D01*
X524256D01*
Y196342D01*
X514096D01*
X488696D02*
Y206502D01*
X498856D01*
Y196342D01*
X488696D01*
X463296D02*
Y206502D01*
X473456D01*
Y196342D01*
X463296D01*
X437896D02*
Y206502D01*
X448056D01*
Y196342D01*
X437896D01*
X412496D02*
Y206502D01*
X422656D01*
Y196342D01*
X412496D01*
X387096D02*
Y206502D01*
X397256D01*
Y196342D01*
X387096D01*
X361696D02*
Y206502D01*
X371856D01*
Y196342D01*
X361696D01*
X336296D02*
Y206502D01*
X346456D01*
Y196342D01*
X336296D01*
X310896D02*
Y206502D01*
X321056D01*
Y196342D01*
X310896D01*
X285496D02*
Y206502D01*
X295656D01*
Y196342D01*
X285496D01*
X615696Y120142D02*
Y130302D01*
X625856D01*
Y120142D01*
X615696D01*
X590296D02*
Y130302D01*
X600456D01*
Y120142D01*
X590296D01*
X564896D02*
Y130302D01*
X575056D01*
Y120142D01*
X564896D01*
X539496D02*
Y130302D01*
X549656D01*
Y120142D01*
X539496D01*
X514096D02*
Y130302D01*
X524256D01*
Y120142D01*
X514096D01*
X488696D02*
Y130302D01*
X498856D01*
Y120142D01*
X488696D01*
X463296D02*
Y130302D01*
X473456D01*
Y120142D01*
X463296D01*
X437896D02*
Y130302D01*
X448056D01*
Y120142D01*
X437896D01*
X412496D02*
Y130302D01*
X422656D01*
Y120142D01*
X412496D01*
X387096D02*
Y130302D01*
X397256D01*
Y120142D01*
X387096D01*
X361696D02*
Y130302D01*
X371856D01*
Y120142D01*
X361696D01*
X336296D02*
Y130302D01*
X346456D01*
Y120142D01*
X336296D01*
X310896D02*
Y130302D01*
X321056D01*
Y120142D01*
X310896D01*
X285496D02*
Y130302D01*
X295656D01*
Y120142D01*
X285496D01*
X134620Y20320D02*
X137160Y25400D01*
X134620Y30480D01*
X139700Y27940D01*
X144780Y30480D01*
X142240Y25400D01*
X144780Y20320D01*
X139700Y22860D01*
X134620Y20320D01*
X654812Y72390D02*
X657352Y77470D01*
X654812Y82550D01*
X659892Y80010D01*
X664972Y82550D01*
X662432Y77470D01*
X664972Y72390D01*
X659892Y74930D01*
X654812Y72390D01*
X196702Y74156D02*
Y71616D01*
X201782D01*
Y74156D01*
X204322D01*
Y79236D01*
X201782D01*
Y81776D01*
X196702D01*
Y79236D01*
X194162D01*
Y74156D01*
X196702D01*
X241702Y9156D02*
Y6616D01*
X246782D01*
Y9156D01*
X249322D01*
Y14236D01*
X246782D01*
Y16776D01*
X241702D01*
Y14236D01*
X239162D01*
Y9156D01*
X241702D01*
Y74156D02*
Y71616D01*
X246782D01*
Y74156D01*
X249322D01*
Y79236D01*
X246782D01*
Y81776D01*
X241702D01*
Y79236D01*
X239162D01*
Y74156D01*
X241702D01*
X196702Y9156D02*
Y6616D01*
X201782D01*
Y9156D01*
X204322D01*
Y14236D01*
X201782D01*
Y16776D01*
X196702D01*
Y14236D01*
X194162D01*
Y9156D01*
X196702D01*
X274320Y20320D02*
Y30480D01*
X284480D01*
Y20320D01*
X274320D01*
X299720D02*
Y30480D01*
X309880D01*
Y20320D01*
X299720D01*
X325120D02*
Y30480D01*
X335280D01*
Y20320D01*
X325120D01*
X350520D02*
Y30480D01*
X360680D01*
Y20320D01*
X350520D01*
X375920D02*
Y30480D01*
X386080D01*
Y20320D01*
X375920D01*
X401320D02*
Y30480D01*
X411480D01*
Y20320D01*
X401320D01*
X426720D02*
Y30480D01*
X436880D01*
Y20320D01*
X426720D01*
X452120D02*
Y30480D01*
X462280D01*
Y20320D01*
X452120D01*
X63754Y401574D02*
Y411734D01*
X73914D01*
Y401574D01*
X63754D01*
X38354D02*
Y411734D01*
X48514D01*
Y401574D01*
X38354D01*
X12954D02*
Y411734D01*
X23114D01*
Y401574D01*
X12954D01*
X63754Y376174D02*
Y386334D01*
X73914D01*
Y376174D01*
X63754D01*
X38354D02*
Y386334D01*
X48514D01*
Y376174D01*
X38354D01*
X12954D02*
Y386334D01*
X23114D01*
Y376174D01*
X12954D01*
X21000Y27920D02*
X15920Y38080D01*
X26080D01*
X21000Y27920D01*
X659920Y420920D02*
Y431080D01*
X670080D01*
Y420920D01*
X659920D01*
Y446320D02*
Y456480D01*
X670080D01*
Y446320D01*
X659920D01*
Y471720D02*
Y481880D01*
X670080D01*
Y471720D01*
X659920D01*
X210566Y470916D02*
X213106D01*
X215646Y473456D01*
X218186Y470916D01*
X220726D01*
Y473456D01*
X218186Y475996D01*
X220726Y478536D01*
Y481076D01*
X218186D01*
X215646Y478536D01*
X213106Y481076D01*
X210566D01*
Y478536D01*
X213106Y475996D01*
X210566Y473456D01*
Y470916D01*
X109220Y252984D02*
X111760D01*
X114300Y255524D01*
X116840Y252984D01*
X119380D01*
Y255524D01*
X116840Y258064D01*
X119380Y260604D01*
Y263144D01*
X116840D01*
X114300Y260604D01*
X111760Y263144D01*
X109220D01*
Y260604D01*
X111760Y258064D01*
X109220Y255524D01*
Y252984D01*
X145542Y270764D02*
X148082D01*
X150622Y273304D01*
X153162Y270764D01*
X155702D01*
Y273304D01*
X153162Y275844D01*
X155702Y278384D01*
Y280924D01*
X153162D01*
X150622Y278384D01*
X148082Y280924D01*
X145542D01*
Y278384D01*
X148082Y275844D01*
X145542Y273304D01*
Y270764D01*
X253746Y168148D02*
X256286D01*
X258826Y170688D01*
X261366Y168148D01*
X263906D01*
Y170688D01*
X261366Y173228D01*
X263906Y175768D01*
Y178308D01*
X261366D01*
X258826Y175768D01*
X256286Y178308D01*
X253746D01*
Y175768D01*
X256286Y173228D01*
X253746Y170688D01*
Y168148D01*
X194310Y421640D02*
X196850D01*
X199390Y424180D01*
X201930Y421640D01*
X204470D01*
Y424180D01*
X201930Y426720D01*
X204470Y429260D01*
Y431800D01*
X201930D01*
X199390Y429260D01*
X196850Y431800D01*
X194310D01*
Y429260D01*
X196850Y426720D01*
X194310Y424180D01*
Y421640D01*
X472186Y83566D02*
X474726D01*
X477266Y86106D01*
X479806Y83566D01*
X482346D01*
Y86106D01*
X479806Y88646D01*
X482346Y91186D01*
Y93726D01*
X479806D01*
X477266Y91186D01*
X474726Y93726D01*
X472186D01*
Y91186D01*
X474726Y88646D01*
X472186Y86106D01*
Y83566D01*
X379476Y67310D02*
X382016D01*
X384556Y69850D01*
X387096Y67310D01*
X389636D01*
Y69850D01*
X387096Y72390D01*
X389636Y74930D01*
Y77470D01*
X387096D01*
X384556Y74930D01*
X382016Y77470D01*
X379476D01*
Y74930D01*
X382016Y72390D01*
X379476Y69850D01*
Y67310D01*
X339852Y76454D02*
X342392D01*
X344932Y78994D01*
X347472Y76454D01*
X350012D01*
Y78994D01*
X347472Y81534D01*
X350012Y84074D01*
Y86614D01*
X347472D01*
X344932Y84074D01*
X342392Y86614D01*
X339852D01*
Y84074D01*
X342392Y81534D01*
X339852Y78994D01*
Y76454D01*
X286766Y65278D02*
X289306D01*
X291846Y67818D01*
X294386Y65278D01*
X296926D01*
Y67818D01*
X294386Y70358D01*
X296926Y72898D01*
Y75438D01*
X294386D01*
X291846Y72898D01*
X289306Y75438D01*
X286766D01*
Y72898D01*
X289306Y70358D01*
X286766Y67818D01*
Y65278D01*
X222758Y418592D02*
X225298D01*
X227838Y421132D01*
X230378Y418592D01*
X232918D01*
Y421132D01*
X230378Y423672D01*
X232918Y426212D01*
Y428752D01*
X230378D01*
X227838Y426212D01*
X225298Y428752D01*
X222758D01*
Y426212D01*
X225298Y423672D01*
X222758Y421132D01*
Y418592D01*
X212090Y412750D02*
X214630D01*
X217170Y415290D01*
X219710Y412750D01*
X222250D01*
Y415290D01*
X219710Y417830D01*
X222250Y420370D01*
Y422910D01*
X219710D01*
X217170Y420370D01*
X214630Y422910D01*
X212090D01*
Y420370D01*
X214630Y417830D01*
X212090Y415290D01*
Y412750D01*
X160020Y418592D02*
X162560D01*
X165100Y421132D01*
X167640Y418592D01*
X170180D01*
Y421132D01*
X167640Y423672D01*
X170180Y426212D01*
Y428752D01*
X167640D01*
X165100Y426212D01*
X162560Y428752D01*
X160020D01*
Y426212D01*
X162560Y423672D01*
X160020Y421132D01*
Y418592D01*
X39878Y430022D02*
X42418D01*
X44958Y432562D01*
X47498Y430022D01*
X50038D01*
Y432562D01*
X47498Y435102D01*
X50038Y437642D01*
Y440182D01*
X47498D01*
X44958Y437642D01*
X42418Y440182D01*
X39878D01*
Y437642D01*
X42418Y435102D01*
X39878Y432562D01*
Y430022D01*
X44450Y506984D02*
X46990D01*
X49530Y509524D01*
X52070Y506984D01*
X54610D01*
Y509524D01*
X52070Y512064D01*
X54610Y514604D01*
Y517144D01*
X52070D01*
X49530Y514604D01*
X46990Y517144D01*
X44450D01*
Y514604D01*
X46990Y512064D01*
X44450Y509524D01*
Y506984D01*
X55372Y273558D02*
X57912D01*
X60452Y276098D01*
X62992Y273558D01*
X65532D01*
Y276098D01*
X62992Y278638D01*
X65532Y281178D01*
Y283718D01*
X62992D01*
X60452Y281178D01*
X57912Y283718D01*
X55372D01*
Y281178D01*
X57912Y278638D01*
X55372Y276098D01*
Y273558D01*
X624078Y180086D02*
X626618D01*
X629158Y182626D01*
X631698Y180086D01*
X634238D01*
Y182626D01*
X631698Y185166D01*
X634238Y187706D01*
Y190246D01*
X631698D01*
X629158Y187706D01*
X626618Y190246D01*
X624078D01*
Y187706D01*
X626618Y185166D01*
X624078Y182626D01*
Y180086D01*
X168148Y183642D02*
X170688D01*
X173228Y186182D01*
X175768Y183642D01*
X178308D01*
Y186182D01*
X175768Y188722D01*
X178308Y191262D01*
Y193802D01*
X175768D01*
X173228Y191262D01*
X170688Y193802D01*
X168148D01*
Y191262D01*
X170688Y188722D01*
X168148Y186182D01*
Y183642D01*
X212090Y346710D02*
X214630D01*
X217170Y349250D01*
X219710Y346710D01*
X222250D01*
Y349250D01*
X219710Y351790D01*
X222250Y354330D01*
Y356870D01*
X219710D01*
X217170Y354330D01*
X214630Y356870D01*
X212090D01*
Y354330D01*
X214630Y351790D01*
X212090Y349250D01*
Y346710D01*
X197866Y118364D02*
X200406D01*
X202946Y120904D01*
X205486Y118364D01*
X208026D01*
Y120904D01*
X205486Y123444D01*
X208026Y125984D01*
Y128524D01*
X205486D01*
X202946Y125984D01*
X200406Y128524D01*
X197866D01*
Y125984D01*
X200406Y123444D01*
X197866Y120904D01*
Y118364D01*
X257810Y104394D02*
X260350D01*
X262890Y106934D01*
X265430Y104394D01*
X267970D01*
Y106934D01*
X265430Y109474D01*
X267970Y112014D01*
Y114554D01*
X265430D01*
X262890Y112014D01*
X260350Y114554D01*
X257810D01*
Y112014D01*
X260350Y109474D01*
X257810Y106934D01*
Y104394D01*
X203454Y201422D02*
X205994D01*
X208534Y203962D01*
X211074Y201422D01*
X213614D01*
Y203962D01*
X211074Y206502D01*
X213614Y209042D01*
Y211582D01*
X211074D01*
X208534Y209042D01*
X205994Y211582D01*
X203454D01*
Y209042D01*
X205994Y206502D01*
X203454Y203962D01*
Y201422D01*
X243078Y198628D02*
X245618D01*
X248158Y201168D01*
X250698Y198628D01*
X253238D01*
Y201168D01*
X250698Y203708D01*
X253238Y206248D01*
Y208788D01*
X250698D01*
X248158Y206248D01*
X245618Y208788D01*
X243078D01*
Y206248D01*
X245618Y203708D01*
X243078Y201168D01*
Y198628D01*
X53848Y213485D02*
X56388D01*
X58928Y216025D01*
X61468Y213485D01*
X64008D01*
Y216025D01*
X61468Y218565D01*
X64008Y221105D01*
Y223645D01*
X61468D01*
X58928Y221105D01*
X56388Y223645D01*
X53848D01*
Y221105D01*
X56388Y218565D01*
X53848Y216025D01*
Y213485D01*
X54864Y222758D02*
X57404D01*
X59944Y225298D01*
X62484Y222758D01*
X65024D01*
Y225298D01*
X62484Y227838D01*
X65024Y230378D01*
Y232918D01*
X62484D01*
X59944Y230378D01*
X57404Y232918D01*
X54864D01*
Y230378D01*
X57404Y227838D01*
X54864Y225298D01*
Y222758D01*
X623570Y100330D02*
X626110D01*
X628650Y102870D01*
X631190Y100330D01*
X633730D01*
Y102870D01*
X631190Y105410D01*
X633730Y107950D01*
Y110490D01*
X631190D01*
X628650Y107950D01*
X626110Y110490D01*
X623570D01*
Y107950D01*
X626110Y105410D01*
X623570Y102870D01*
Y100330D01*
X474726Y24892D02*
X477266D01*
X479806Y27432D01*
X482346Y24892D01*
X484886D01*
Y27432D01*
X482346Y29972D01*
X484886Y32512D01*
Y35052D01*
X482346D01*
X479806Y32512D01*
X477266Y35052D01*
X474726D01*
Y32512D01*
X477266Y29972D01*
X474726Y27432D01*
Y24892D01*
X310388Y445770D02*
X312928D01*
X315468Y448310D01*
X318008Y445770D01*
X320548D01*
Y448310D01*
X318008Y450850D01*
X320548Y453390D01*
Y455930D01*
X318008D01*
X315468Y453390D01*
X312928Y455930D01*
X310388D01*
Y453390D01*
X312928Y450850D01*
X310388Y448310D01*
Y445770D01*
X307594Y457454D02*
X310134D01*
X312674Y459994D01*
X315214Y457454D01*
X317754D01*
Y459994D01*
X315214Y462534D01*
X317754Y465074D01*
Y467614D01*
X315214D01*
X312674Y465074D01*
X310134Y467614D01*
X307594D01*
Y465074D01*
X310134Y462534D01*
X307594Y459994D01*
Y457454D01*
X125730Y314706D02*
X128270D01*
X130810Y317246D01*
X133350Y314706D01*
X135890D01*
Y317246D01*
X133350Y319786D01*
X135890Y322326D01*
Y324866D01*
X133350D01*
X130810Y322326D01*
X128270Y324866D01*
X125730D01*
Y322326D01*
X128270Y319786D01*
X125730Y317246D01*
Y314706D01*
X139954Y320040D02*
X142494D01*
X145034Y322580D01*
X147574Y320040D01*
X150114D01*
Y322580D01*
X147574Y325120D01*
X150114Y327660D01*
Y330200D01*
X147574D01*
X145034Y327660D01*
X142494Y330200D01*
X139954D01*
Y327660D01*
X142494Y325120D01*
X139954Y322580D01*
Y320040D01*
X494538Y164338D02*
X497078D01*
X499618Y166878D01*
X502158Y164338D01*
X504698D01*
Y166878D01*
X502158Y169418D01*
X504698Y171958D01*
Y174498D01*
X502158D01*
X499618Y171958D01*
X497078Y174498D01*
X494538D01*
Y171958D01*
X497078Y169418D01*
X494538Y166878D01*
Y164338D01*
X463042Y164084D02*
X465582D01*
X468122Y166624D01*
X470662Y164084D01*
X473202D01*
Y166624D01*
X470662Y169164D01*
X473202Y171704D01*
Y174244D01*
X470662D01*
X468122Y171704D01*
X465582Y174244D01*
X463042D01*
Y171704D01*
X465582Y169164D01*
X463042Y166624D01*
Y164084D01*
X84328Y113284D02*
X86868D01*
X89408Y115824D01*
X91948Y113284D01*
X94488D01*
Y115824D01*
X91948Y118364D01*
X94488Y120904D01*
Y123444D01*
X91948D01*
X89408Y120904D01*
X86868Y123444D01*
X84328D01*
Y120904D01*
X86868Y118364D01*
X84328Y115824D01*
Y113284D01*
X84074Y102108D02*
X86614D01*
X89154Y104648D01*
X91694Y102108D01*
X94234D01*
Y104648D01*
X91694Y107188D01*
X94234Y109728D01*
Y112268D01*
X91694D01*
X89154Y109728D01*
X86614Y112268D01*
X84074D01*
Y109728D01*
X86614Y107188D01*
X84074Y104648D01*
Y102108D01*
X559562Y410718D02*
X562102D01*
X564642Y413258D01*
X567182Y410718D01*
X569722D01*
Y413258D01*
X567182Y415798D01*
X569722Y418338D01*
Y420878D01*
X567182D01*
X564642Y418338D01*
X562102Y420878D01*
X559562D01*
Y418338D01*
X562102Y415798D01*
X559562Y413258D01*
Y410718D01*
X149098Y188468D02*
X151638D01*
X154178Y191008D01*
X156718Y188468D01*
X159258D01*
Y191008D01*
X156718Y193548D01*
X159258Y196088D01*
Y198628D01*
X156718D01*
X154178Y196088D01*
X151638Y198628D01*
X149098D01*
Y196088D01*
X151638Y193548D01*
X149098Y191008D01*
Y188468D01*
X114554Y187960D02*
X117094D01*
X119634Y190500D01*
X122174Y187960D01*
X124714D01*
Y190500D01*
X122174Y193040D01*
X124714Y195580D01*
Y198120D01*
X122174D01*
X119634Y195580D01*
X117094Y198120D01*
X114554D01*
Y195580D01*
X117094Y193040D01*
X114554Y190500D01*
Y187960D01*
X153416Y200660D02*
X155956D01*
X158496Y203200D01*
X161036Y200660D01*
X163576D01*
Y203200D01*
X161036Y205740D01*
X163576Y208280D01*
Y210820D01*
X161036D01*
X158496Y208280D01*
X155956Y210820D01*
X153416D01*
Y208280D01*
X155956Y205740D01*
X153416Y203200D01*
Y200660D01*
X114046Y210820D02*
X116586D01*
X119126Y213360D01*
X121666Y210820D01*
X124206D01*
Y213360D01*
X121666Y215900D01*
X124206Y218440D01*
Y220980D01*
X121666D01*
X119126Y218440D01*
X116586Y220980D01*
X114046D01*
Y218440D01*
X116586Y215900D01*
X114046Y213360D01*
Y210820D01*
X200152Y442214D02*
X202692D01*
X205232Y444754D01*
X207772Y442214D01*
X210312D01*
Y444754D01*
X207772Y447294D01*
X210312Y449834D01*
Y452374D01*
X207772D01*
X205232Y449834D01*
X202692Y452374D01*
X200152D01*
Y449834D01*
X202692Y447294D01*
X200152Y444754D01*
Y442214D01*
X560578Y401574D02*
X563118D01*
X565658Y404114D01*
X568198Y401574D01*
X570738D01*
Y404114D01*
X568198Y406654D01*
X570738Y409194D01*
Y411734D01*
X568198D01*
X565658Y409194D01*
X563118Y411734D01*
X560578D01*
Y409194D01*
X563118Y406654D01*
X560578Y404114D01*
Y401574D01*
X578612Y172212D02*
X581152D01*
X583692Y174752D01*
X586232Y172212D01*
X588772D01*
Y174752D01*
X586232Y177292D01*
X588772Y179832D01*
Y182372D01*
X586232D01*
X583692Y179832D01*
X581152Y182372D01*
X578612D01*
Y179832D01*
X581152Y177292D01*
X578612Y174752D01*
Y172212D01*
X558292Y422402D02*
X560832D01*
X563372Y424942D01*
X565912Y422402D01*
X568452D01*
Y424942D01*
X565912Y427482D01*
X568452Y430022D01*
Y432562D01*
X565912D01*
X563372Y430022D01*
X560832Y432562D01*
X558292D01*
Y430022D01*
X560832Y427482D01*
X558292Y424942D01*
Y422402D01*
X564134Y433832D02*
X566674D01*
X569214Y436372D01*
X571754Y433832D01*
X574294D01*
Y436372D01*
X571754Y438912D01*
X574294Y441452D01*
Y443992D01*
X571754D01*
X569214Y441452D01*
X566674Y443992D01*
X564134D01*
Y441452D01*
X566674Y438912D01*
X564134Y436372D01*
Y433832D01*
X657062Y153292D02*
X659602D01*
X662142Y155832D01*
X664682Y153292D01*
X667222D01*
Y155832D01*
X664682Y158372D01*
X667222Y160912D01*
Y163452D01*
X664682D01*
X662142Y160912D01*
X659602Y163452D01*
X657062D01*
Y160912D01*
X659602Y158372D01*
X657062Y155832D01*
Y153292D01*
X621030Y456184D02*
X623570D01*
X626110Y458724D01*
X628650Y456184D01*
X631190D01*
Y458724D01*
X628650Y461264D01*
X631190Y463804D01*
Y466344D01*
X628650D01*
X626110Y463804D01*
X623570Y466344D01*
X621030D01*
Y463804D01*
X623570Y461264D01*
X621030Y458724D01*
Y456184D01*
X322580Y173736D02*
X325120D01*
X327660Y176276D01*
X330200Y173736D01*
X332740D01*
Y176276D01*
X330200Y178816D01*
X332740Y181356D01*
Y183896D01*
X330200D01*
X327660Y181356D01*
X325120Y183896D01*
X322580D01*
Y181356D01*
X325120Y178816D01*
X322580Y176276D01*
Y173736D01*
X284629Y221790D02*
X287169D01*
X289709Y224330D01*
X292249Y221790D01*
X294789D01*
Y224330D01*
X292249Y226870D01*
X294789Y229410D01*
Y231950D01*
X292249D01*
X289709Y229410D01*
X287169Y231950D01*
X284629D01*
Y229410D01*
X287169Y226870D01*
X284629Y224330D01*
Y221790D01*
X297942Y172974D02*
X300482D01*
X303022Y175514D01*
X305562Y172974D01*
X308102D01*
Y175514D01*
X305562Y178054D01*
X308102Y180594D01*
Y183134D01*
X305562D01*
X303022Y180594D01*
X300482Y183134D01*
X297942D01*
Y180594D01*
X300482Y178054D01*
X297942Y175514D01*
Y172974D01*
X292354Y219710D02*
X294894D01*
X297434Y222250D01*
X299974Y219710D01*
X302514D01*
Y222250D01*
X299974Y224790D01*
X302514Y227330D01*
Y229870D01*
X299974D01*
X297434Y227330D01*
X294894Y229870D01*
X292354D01*
Y227330D01*
X294894Y224790D01*
X292354Y222250D01*
Y219710D01*
D86*
X27435Y233492D02*
G03*
X27435Y233492I-5080J0D01*
G01*
Y167492D02*
G03*
X27435Y167492I-5080J0D01*
G01*
M02*
