G04*
G04 #@! TF.GenerationSoftware,Altium Limited,Altium Designer,25.4.2 (15)*
G04*
G04 Layer_Physical_Order=1*
G04 Layer_Color=255*
%FSLAX44Y44*%
%MOMM*%
G71*
G04*
G04 #@! TF.SameCoordinates,EB978DBB-77F5-4BF1-8C58-C0B6FF9767F6*
G04*
G04*
G04 #@! TF.FilePolarity,Positive*
G04*
G01*
G75*
%ADD13R,1.6000X3.0000*%
%ADD14R,1.3000X0.9000*%
%ADD15R,0.9000X1.3000*%
%ADD16R,0.8000X0.8000*%
%ADD17R,0.5588X0.6858*%
%ADD18R,1.3500X0.4000*%
%ADD19R,1.9000X1.9000*%
%ADD20R,1.4000X1.6000*%
%ADD21R,0.7000X1.3000*%
%ADD22R,2.2000X0.8000*%
%ADD23R,1.3000X0.7000*%
%ADD24R,0.5500X1.5000*%
%ADD25R,1.5000X0.5500*%
%ADD26R,3.5000X2.2000*%
%ADD27R,0.6000X2.2000*%
%ADD28R,0.5500X1.0000*%
%ADD29R,2.5000X2.6000*%
%ADD30R,0.9000X0.6000*%
%ADD31R,2.6000X2.5000*%
%ADD32R,1.0000X0.5500*%
%ADD33R,0.6858X0.5588*%
%ADD56R,1.9000X1.9000*%
%ADD57C,1.9000*%
%ADD69C,1.0160*%
%ADD70C,0.4000*%
%ADD71C,0.3000*%
%ADD72R,1.7000X1.7000*%
%ADD73C,1.7000*%
%ADD74O,2.0000X1.6000*%
%ADD75R,2.0000X1.6000*%
G04:AMPARAMS|DCode=76|XSize=2mm|YSize=1.2mm|CornerRadius=0.3mm|HoleSize=0mm|Usage=FLASHONLY|Rotation=0.000|XOffset=0mm|YOffset=0mm|HoleType=Round|Shape=RoundedRectangle|*
%AMROUNDEDRECTD76*
21,1,2.0000,0.6000,0,0,0.0*
21,1,1.4000,1.2000,0,0,0.0*
1,1,0.6000,0.7000,-0.3000*
1,1,0.6000,-0.7000,-0.3000*
1,1,0.6000,-0.7000,0.3000*
1,1,0.6000,0.7000,0.3000*
%
%ADD76ROUNDEDRECTD76*%
%ADD77O,1.6000X2.0000*%
%ADD78R,1.6000X2.0000*%
%ADD79C,4.0000*%
%ADD80C,7.0000*%
%ADD81C,3.2000*%
%ADD82C,0.6000*%
D13*
X72000Y23000D02*
D03*
Y64000D02*
D03*
X72000Y98500D02*
D03*
Y139500D02*
D03*
D14*
X142240Y219100D02*
D03*
Y238100D02*
D03*
X646938Y206350D02*
D03*
Y187350D02*
D03*
X211328Y192888D02*
D03*
Y173888D02*
D03*
X218000Y321500D02*
D03*
Y302500D02*
D03*
X447000Y73000D02*
D03*
Y54000D02*
D03*
X221000Y238500D02*
D03*
Y219500D02*
D03*
X116000Y105000D02*
D03*
Y124000D02*
D03*
X220218Y96418D02*
D03*
Y115418D02*
D03*
X218694Y436016D02*
D03*
Y455016D02*
D03*
X197000Y219500D02*
D03*
Y238500D02*
D03*
X173000Y219500D02*
D03*
Y238500D02*
D03*
X638762Y461500D02*
D03*
Y480500D02*
D03*
X307594Y67920D02*
D03*
Y48920D02*
D03*
X353822Y67920D02*
D03*
Y48920D02*
D03*
X235458Y192990D02*
D03*
Y173990D02*
D03*
X245110Y115520D02*
D03*
Y96520D02*
D03*
D15*
X405500Y74000D02*
D03*
X424500D02*
D03*
X443500Y295000D02*
D03*
X462500D02*
D03*
X612496Y335788D02*
D03*
X593496D02*
D03*
X650900Y127762D02*
D03*
X669900D02*
D03*
X419500Y295000D02*
D03*
X400500D02*
D03*
X487500Y52000D02*
D03*
X468500D02*
D03*
X258968Y359732D02*
D03*
X239968D02*
D03*
X260468Y251732D02*
D03*
X241468D02*
D03*
X13360Y434848D02*
D03*
X32360D02*
D03*
X14134Y510570D02*
D03*
X33134D02*
D03*
X237896Y481838D02*
D03*
X256896D02*
D03*
X487500Y75000D02*
D03*
X468500D02*
D03*
X443500Y231000D02*
D03*
X462500D02*
D03*
X400152Y52324D02*
D03*
X381152D02*
D03*
X405500Y98000D02*
D03*
X424500D02*
D03*
X444500D02*
D03*
X463500D02*
D03*
X69952Y292862D02*
D03*
X50952D02*
D03*
X112116Y240538D02*
D03*
X93116D02*
D03*
D16*
X242436Y395224D02*
D03*
X257436D02*
D03*
X613290Y378460D02*
D03*
X598290D02*
D03*
X257436Y431546D02*
D03*
X242436D02*
D03*
X257436Y413258D02*
D03*
X242436D02*
D03*
D17*
X598808Y247794D02*
D03*
X623192D02*
D03*
D18*
X49105Y187492D02*
D03*
Y193992D02*
D03*
Y200492D02*
D03*
Y206992D02*
D03*
Y213492D02*
D03*
D19*
X22355Y188492D02*
D03*
Y212492D02*
D03*
X244242Y76696D02*
D03*
D20*
X46855Y168492D02*
D03*
Y232492D02*
D03*
D21*
X593242Y358648D02*
D03*
X612242D02*
D03*
X403500Y231000D02*
D03*
X422500D02*
D03*
X240182Y453136D02*
D03*
X259182D02*
D03*
X100940Y348234D02*
D03*
X81940D02*
D03*
X88500Y216000D02*
D03*
X107500D02*
D03*
X88500Y193000D02*
D03*
X107500D02*
D03*
X385014Y97282D02*
D03*
X366014D02*
D03*
X286360Y90678D02*
D03*
X267360D02*
D03*
X13868Y253746D02*
D03*
X32868D02*
D03*
X620500Y229286D02*
D03*
X601500D02*
D03*
X278354Y467503D02*
D03*
X297353D02*
D03*
X297607Y443627D02*
D03*
X278608D02*
D03*
X107500Y169000D02*
D03*
X88500D02*
D03*
D22*
X17000Y73000D02*
D03*
Y93000D02*
D03*
D23*
X172742Y388179D02*
D03*
Y369179D02*
D03*
X638000Y421500D02*
D03*
Y440500D02*
D03*
X330708Y46074D02*
D03*
Y65074D02*
D03*
X670560Y187350D02*
D03*
Y206350D02*
D03*
X647050Y226574D02*
D03*
Y245574D02*
D03*
X261112Y158344D02*
D03*
Y139344D02*
D03*
X91000Y283500D02*
D03*
Y264500D02*
D03*
X269240Y69444D02*
D03*
Y50444D02*
D03*
X29972Y274980D02*
D03*
Y293980D02*
D03*
X670560Y245466D02*
D03*
Y226466D02*
D03*
X218000Y263500D02*
D03*
Y282500D02*
D03*
X613410Y480416D02*
D03*
Y461416D02*
D03*
X590296Y480416D02*
D03*
Y461416D02*
D03*
X330708Y99670D02*
D03*
Y80670D02*
D03*
D24*
X182000Y258000D02*
D03*
X174000D02*
D03*
X166000D02*
D03*
X158000D02*
D03*
X150000D02*
D03*
X142000D02*
D03*
X134000D02*
D03*
X126000D02*
D03*
Y342000D02*
D03*
X134000D02*
D03*
X142000D02*
D03*
X150000D02*
D03*
X158000D02*
D03*
X166000D02*
D03*
X174000D02*
D03*
X182000D02*
D03*
D25*
X112000Y272000D02*
D03*
Y280000D02*
D03*
Y288000D02*
D03*
Y296000D02*
D03*
Y304000D02*
D03*
Y312000D02*
D03*
Y320000D02*
D03*
Y328000D02*
D03*
X196000D02*
D03*
Y320000D02*
D03*
Y312000D02*
D03*
Y304000D02*
D03*
Y296000D02*
D03*
Y280000D02*
D03*
Y272000D02*
D03*
Y288000D02*
D03*
D26*
X164000Y169000D02*
D03*
D27*
X189400Y107000D02*
D03*
X176700D02*
D03*
X164000D02*
D03*
X151300D02*
D03*
X138600D02*
D03*
D28*
X668020Y171958D02*
D03*
Y144958D02*
D03*
X649020D02*
D03*
Y171958D02*
D03*
X658520D02*
D03*
X60960Y248628D02*
D03*
X70460D02*
D03*
Y275628D02*
D03*
X51460D02*
D03*
Y248628D02*
D03*
D29*
X456500Y263000D02*
D03*
X407500D02*
D03*
D30*
X69000Y179500D02*
D03*
Y194500D02*
D03*
X70524Y213500D02*
D03*
Y228500D02*
D03*
D31*
X249968Y330232D02*
D03*
Y281232D02*
D03*
D32*
X171920Y445516D02*
D03*
Y436016D02*
D03*
X198920D02*
D03*
Y455016D02*
D03*
X171920D02*
D03*
X212306Y145288D02*
D03*
Y135788D02*
D03*
X239306D02*
D03*
Y154788D02*
D03*
X212306D02*
D03*
D33*
X9652Y272288D02*
D03*
Y296672D02*
D03*
D56*
X670500Y267326D02*
D03*
D57*
Y312326D02*
D03*
X605500Y267326D02*
D03*
Y312326D02*
D03*
X199242Y76696D02*
D03*
X244242Y11696D02*
D03*
X199242D02*
D03*
D69*
X713914Y30842D02*
D03*
X74422Y515874D02*
D03*
X668020Y511556D02*
D03*
X667512Y19304D02*
D03*
D70*
X278354Y464503D02*
Y467503D01*
X268145Y454294D02*
X278354Y464503D01*
X268145Y423967D02*
Y454294D01*
X257436Y413258D02*
X268145Y423967D01*
X264160Y491102D02*
Y508000D01*
X256896Y483838D02*
X264160Y491102D01*
X256896Y481838D02*
Y483838D01*
X270854Y475659D02*
X273222Y478028D01*
X295599D01*
X216187Y475996D02*
X221775Y481584D01*
X215646Y475996D02*
X216187D01*
X221775Y481584D02*
X237642D01*
X112116Y240538D02*
X113917Y242339D01*
Y257681D01*
X114300Y258064D01*
X150000Y275222D02*
X150622Y275844D01*
X150000Y258000D02*
Y275222D01*
X198920Y436016D02*
X199155Y435781D01*
Y426955D02*
X199390Y426720D01*
X199155Y426955D02*
Y435781D01*
X477266Y88646D02*
Y88646D01*
X471000Y82380D02*
X477266Y88646D01*
X471000Y77500D02*
Y82380D01*
X468500Y75000D02*
X471000Y77500D01*
X469657Y108500D02*
X487500Y90657D01*
X384556Y69920D02*
Y72390D01*
Y69920D02*
X400152Y54324D01*
Y52324D02*
Y54324D01*
X344932Y81534D02*
X349322Y77144D01*
Y70420D02*
Y77144D01*
Y70420D02*
X351822Y67920D01*
X353822D01*
X291846Y70358D02*
X294284Y67920D01*
X307594D01*
X227838Y423672D02*
X228346Y424180D01*
X235070D01*
X242436Y431546D01*
X218694Y419895D02*
Y436016D01*
X217170Y417830D02*
Y418371D01*
X218694Y419895D01*
X165100Y423672D02*
Y429196D01*
X168920Y433016D01*
Y435266D01*
X169670Y436016D01*
X171920D01*
X44704Y434848D02*
X44958Y435102D01*
X32360Y434848D02*
X44704D01*
X33134Y510570D02*
X34628Y512064D01*
X49530D01*
X60452Y278638D02*
X60835Y279021D01*
Y281745D01*
X69952Y290862D01*
Y292862D01*
X51460Y273378D02*
Y275628D01*
Y273378D02*
X55288Y269550D01*
X63132D01*
X68181Y264500D01*
X645137Y185549D02*
X646938Y187350D01*
X629541Y185549D02*
X645137D01*
X629158Y185166D02*
X629541Y185549D01*
X219000Y219500D02*
X221000D01*
X197000D02*
X219000D01*
X46855Y168492D02*
Y187492D01*
X479806Y29972D02*
Y38694D01*
X468500Y50000D02*
Y52000D01*
X466500Y54000D02*
X468500Y52000D01*
Y50000D02*
X479806Y38694D01*
X670231Y226795D02*
Y233755D01*
X640869Y236098D02*
X667888D01*
X670231Y233755D01*
Y226795D02*
X670560Y226466D01*
X173736Y178000D02*
Y188214D01*
X173228Y188722D02*
X173736Y188214D01*
X112116Y238538D02*
Y240538D01*
X102078Y228500D02*
X112116Y238538D01*
X70524Y228500D02*
X102078D01*
X255113Y107517D02*
X260933D01*
X262890Y109474D01*
X269890Y107046D02*
X275758Y101178D01*
X291517D01*
X269890Y107046D02*
Y112374D01*
X265790Y116474D02*
X269890Y112374D01*
X217170Y351790D02*
X225112Y359732D01*
X239968D01*
X202946Y123444D02*
X203329Y123061D01*
X208567D01*
X210298Y121330D01*
X212306D01*
X195946Y120545D02*
Y140525D01*
X202692Y147271D02*
Y158581D01*
X206828Y162717D01*
X205329Y116444D02*
X209718Y112055D01*
X195946Y120545D02*
X200047Y116444D01*
X205329D01*
X206828Y162717D02*
Y171388D01*
X195946Y140525D02*
X202692Y147271D01*
X209328Y173888D02*
X211328D01*
X206828Y171388D02*
X209328Y173888D01*
X209718Y109261D02*
Y112055D01*
Y109261D02*
X212061Y106918D01*
X247110Y115520D02*
X255113Y107517D01*
X245110Y115520D02*
X247110D01*
X253267Y124020D02*
X260813Y116474D01*
X238682Y455016D02*
X239992Y456326D01*
X260813Y116474D02*
X265790D01*
X164736Y169000D02*
X173736Y178000D01*
X164000Y169000D02*
X164736D01*
X208534Y206502D02*
X208917Y206885D01*
Y209417D01*
X219000Y219500D01*
X248158Y203690D02*
Y203708D01*
X237458Y192990D02*
X248158Y203690D01*
X235458Y192990D02*
X237458D01*
X195250Y287250D02*
X196000Y288000D01*
X178500Y269407D02*
X181250Y266657D01*
Y258750D02*
Y266657D01*
X178500Y269407D02*
Y286892D01*
X186858Y295250D02*
X195250D01*
X178500Y286892D02*
X186858Y295250D01*
X181250Y258750D02*
X182000Y258000D01*
Y253250D02*
Y258000D01*
X601500Y239857D02*
X637109D01*
X592082Y252869D02*
X598014Y246937D01*
X598808Y244873D02*
Y245508D01*
X598014Y246302D02*
Y246937D01*
X601500Y239857D02*
Y242181D01*
X598014Y246302D02*
X598808Y245508D01*
Y244873D02*
X601500Y242181D01*
Y227762D02*
Y239857D01*
X601500Y239857D01*
X637109D02*
X640869Y236098D01*
X592000Y256400D02*
Y328958D01*
X670560Y206350D02*
Y226466D01*
X598290Y378460D02*
X599087Y377663D01*
Y368460D02*
Y377663D01*
Y368460D02*
X600742Y366805D01*
Y349542D02*
Y366805D01*
Y349542D02*
X612496Y337788D01*
Y335788D02*
Y337788D01*
Y333788D02*
Y335788D01*
X606534Y327826D02*
X612496Y333788D01*
X606534Y313360D02*
Y327826D01*
X605500Y312326D02*
X606534Y313360D01*
X605500Y312326D02*
X670500D01*
Y314046D01*
X660400Y324146D02*
X670500Y314046D01*
X660400Y324146D02*
Y366014D01*
Y379197D01*
X638000Y401597D02*
X660400Y379197D01*
X638000Y401597D02*
Y421500D01*
X646938Y187350D02*
X649020Y185268D01*
Y171958D02*
Y185268D01*
X669900Y125762D02*
Y127762D01*
X667400Y123262D02*
X669900Y125762D01*
X665400Y123262D02*
X667400D01*
X659892Y117754D02*
X665400Y123262D01*
X659892Y77470D02*
Y117754D01*
X406400Y25400D02*
X431800D01*
X468500Y75000D02*
Y77000D01*
X463500Y82000D02*
X468500Y77000D01*
X463500Y82000D02*
Y98000D01*
X419500Y295000D02*
Y297000D01*
X428000Y305500D01*
X454000D01*
X462500Y297000D01*
Y295000D02*
Y297000D01*
Y293000D02*
Y295000D01*
Y293000D02*
X473000Y282500D01*
Y248343D02*
Y282500D01*
X466578Y241922D02*
X473000Y248343D01*
X452422Y241922D02*
X466578D01*
X443500Y233000D02*
X452422Y241922D01*
X443500Y231000D02*
Y233000D01*
X443238Y230738D02*
X443500Y231000D01*
X443238Y201684D02*
Y230738D01*
X442976Y201422D02*
X443238Y201684D01*
X442976Y199422D02*
Y201422D01*
X405500Y161946D02*
X442976Y199422D01*
X405500Y98000D02*
Y161946D01*
Y74000D02*
Y98000D01*
Y72000D02*
Y74000D01*
X400152Y66652D02*
X405500Y72000D01*
X400152Y52324D02*
Y66652D01*
X164000Y193470D02*
X168500Y197971D01*
X157078Y186548D02*
X164000Y193470D01*
Y195250D01*
Y169000D02*
Y193470D01*
X72000Y134000D02*
Y139500D01*
Y132500D02*
Y134000D01*
X218000Y302500D02*
X220000D01*
X228906Y311406D01*
Y340326D01*
X235311Y346732D01*
X237625D01*
X239968Y349075D01*
Y359732D01*
X216000Y302500D02*
X218000D01*
X213500Y300000D02*
X216000Y302500D01*
X213500Y297108D02*
Y300000D01*
X205142Y288750D02*
X213500Y297108D01*
X196750Y288750D02*
X205142D01*
X196000Y288000D02*
X196750Y288750D01*
X241468Y212543D02*
Y251732D01*
X235458Y206533D02*
X241468Y212543D01*
X235458Y192990D02*
Y206533D01*
X196692Y219192D02*
X197000Y219500D01*
X196692Y159050D02*
Y219192D01*
X164000Y126358D02*
X196692Y159050D01*
X164000Y107000D02*
Y126358D01*
X116000Y105000D02*
X118000D01*
X186500Y173164D02*
X190692Y168972D01*
Y161535D02*
Y168972D01*
X118000Y105000D02*
X137600D01*
X181750Y152594D02*
X190692Y161535D01*
X593369Y330581D02*
Y353187D01*
X311669Y81026D02*
X330708D01*
X211379Y173939D02*
X236857D01*
X229855Y130590D02*
Y139743D01*
X211328Y173888D02*
X211379Y173939D01*
X650900Y127762D02*
Y129762D01*
Y125762D02*
Y127762D01*
X330708Y80670D02*
Y81026D01*
Y65074D02*
Y80670D01*
X236857Y173939D02*
X239306Y171490D01*
X236806Y173990D02*
X236857Y173939D01*
X237407D01*
X218218Y115418D02*
X220218D01*
X212306Y121330D02*
X218218Y115418D01*
X212306Y121330D02*
Y135788D01*
X199242Y11696D02*
Y76696D01*
X185538Y25400D02*
X199242Y11696D01*
X139700Y25400D02*
X185538D01*
X101100Y64000D02*
X139700Y25400D01*
X72000Y64000D02*
X101100D01*
X72000D02*
Y71000D01*
X78000Y77000D01*
X79157D01*
X96408Y94251D01*
Y121264D01*
X91172Y126500D02*
X96408Y121264D01*
X78000Y126500D02*
X91172D01*
X72000Y132500D02*
X78000Y126500D01*
X66000Y128000D02*
X72000Y134000D01*
X21000Y128000D02*
X66000D01*
X112116Y240538D02*
Y242538D01*
X103616Y251038D02*
X112116Y242538D01*
X86959Y251038D02*
X103616D01*
X84549Y248628D02*
X86959Y251038D01*
X70460Y248628D02*
X84549D01*
X69024Y228500D02*
X70524D01*
X68024Y229500D02*
X69024Y228500D01*
X68024Y229500D02*
Y229657D01*
X62843Y234838D02*
X68024Y229657D01*
X49201Y234838D02*
X62843D01*
X46855Y232492D02*
X49201Y234838D01*
X139740Y221600D02*
X142240Y219100D01*
X131054Y221600D02*
X139740D01*
X116616Y236038D02*
X131054Y221600D01*
X114616Y236038D02*
X116616D01*
X112116Y238538D02*
X114616Y236038D01*
X140240Y219100D02*
X142240D01*
X135740Y214600D02*
X140240Y219100D01*
X135740Y202087D02*
Y214600D01*
Y202087D02*
X151278Y186548D01*
X157078D01*
X168500Y197971D02*
Y217000D01*
X171000Y219500D01*
X173000D01*
X114000Y124000D02*
X116000D01*
X98500Y139500D02*
X114000Y124000D01*
X72000Y139500D02*
X98500D01*
X72000D02*
Y146500D01*
X78000Y152500D01*
X84500D01*
X88500Y156500D01*
Y169000D01*
Y172000D01*
X87000Y173500D02*
X88500Y172000D01*
X85272Y173500D02*
X87000D01*
X79272Y179500D02*
X85272Y173500D01*
X69000Y179500D02*
X79272D01*
X68000Y180500D02*
X69000Y179500D01*
X60847Y180500D02*
X68000D01*
X53855Y187492D02*
X60847Y180500D01*
X49105Y187492D02*
X53855D01*
X46855D02*
X49105D01*
X45855Y167492D02*
X46855Y168492D01*
X22355Y167492D02*
X45855D01*
X22355D02*
Y188492D01*
Y212492D01*
Y233492D01*
X45855D01*
X46855Y232492D01*
X6470Y443738D02*
X13360Y436848D01*
X240182Y456136D02*
X241682Y457636D01*
X5534Y443792D02*
Y473910D01*
X18034Y486410D01*
X5588Y443738D02*
X6470D01*
X5534Y443792D02*
X5588Y443738D01*
X13360Y434848D02*
Y436848D01*
Y414846D02*
Y434848D01*
X31242Y419862D02*
X127767D01*
X139029Y408600D01*
X165884D01*
X172742Y401742D01*
X18034Y406654D02*
X31242Y419862D01*
X329484Y98438D02*
X339961D01*
X370315Y68084D01*
X328354Y99568D02*
X329484Y98438D01*
X291517Y101178D02*
X311669Y81026D01*
X239306Y154788D02*
Y171490D01*
X218694Y455016D02*
X238682D01*
X198920D02*
X218694D01*
X239306Y146038D02*
Y154788D01*
X53855Y213492D02*
X58928Y218565D01*
Y227838D01*
X630931Y105793D02*
X650900Y125762D01*
X629033Y105793D02*
X630931D01*
X628650Y105410D02*
X629033Y105793D01*
X237407Y173939D02*
X259588Y196120D01*
Y234195D01*
X274828Y249435D01*
Y353314D01*
X326644Y405130D01*
Y461518D01*
X316230Y471932D02*
X326644Y461518D01*
X311283Y471932D02*
X316230D01*
X306854Y467503D02*
X311283Y471932D01*
X297353Y467503D02*
X306854D01*
X238654Y128247D02*
X242881Y124020D01*
X232198Y128247D02*
X238654D01*
X229855Y130590D02*
X232198Y128247D01*
X226826Y106918D02*
X230718Y103026D01*
Y88478D02*
Y103026D01*
X201415Y107000D02*
X209203Y99212D01*
X212061Y106918D02*
X226826D01*
X176700Y107000D02*
X201415D01*
X209203Y99212D02*
X220218D01*
X227330Y85090D02*
X230718Y88478D01*
X209940Y85090D02*
X227330D01*
X204834Y90196D02*
X209940Y85090D01*
X193650Y90196D02*
X204834D01*
X185010Y81556D02*
X193650Y90196D01*
X242881Y124020D02*
X253267D01*
X229855Y139743D02*
X233228Y143116D01*
X236384D01*
X239306Y146038D01*
X185010Y74640D02*
Y81556D01*
X176371Y66000D02*
X185010Y74640D01*
X158000Y66000D02*
X176371D01*
X146000Y78000D02*
X158000Y66000D01*
X146000Y78000D02*
Y80000D01*
X186500Y173164D02*
Y222657D01*
X181157Y228000D02*
X186500Y222657D01*
X159198Y152594D02*
X181750D01*
X173000Y230343D02*
Y238500D01*
Y252250D01*
X68181Y264500D02*
X91000D01*
X51206Y275882D02*
X51460Y275628D01*
X51206Y275882D02*
Y292608D01*
X50952Y292862D02*
X51206Y292608D01*
X49834Y293980D02*
X50952Y292862D01*
X29972Y293980D02*
X49834D01*
X26972D02*
X29972D01*
X24280Y296672D02*
X26972Y293980D01*
X9652Y296672D02*
X24280D01*
X9017D02*
X9652D01*
X8223Y297466D02*
X9017Y296672D01*
X8223Y297466D02*
Y298101D01*
X5080Y301244D02*
X8223Y298101D01*
X5080Y301244D02*
Y393700D01*
X18034Y406654D01*
X172742Y401742D02*
Y423431D01*
X18034Y406654D02*
Y410172D01*
X13360Y414846D02*
X18034Y410172D01*
X16084Y488360D02*
X18034Y486410D01*
X16084Y488360D02*
Y508620D01*
X14134Y510570D02*
X16084Y508620D01*
X295854Y469003D02*
X297353Y467503D01*
X295854Y469003D02*
Y477773D01*
X295599Y478028D02*
X295854Y477773D01*
X270854Y472068D02*
Y475659D01*
X263638Y464852D02*
X270854Y472068D01*
X255241Y464852D02*
X263638D01*
X248025Y457636D02*
X255241Y464852D01*
X241682Y457636D02*
X248025D01*
X240182Y453136D02*
Y456136D01*
X297481Y443754D02*
X297607Y443627D01*
X297481Y443754D02*
Y467376D01*
X297353Y467503D02*
X297481Y467376D01*
X196670Y455016D02*
X198920D01*
X184331Y442677D02*
X196670Y455016D01*
X184331Y435020D02*
Y442677D01*
X172742Y423431D02*
X184331Y435020D01*
X172742Y388179D02*
Y401742D01*
X418485Y54000D02*
X447000D01*
X406309Y41824D02*
X418485Y54000D01*
X399202Y41824D02*
X406309D01*
X393000Y35622D02*
X399202Y41824D01*
X393000Y18429D02*
Y35622D01*
X385971Y11400D02*
X393000Y18429D01*
X376029Y11400D02*
X385971D01*
X374983Y12446D02*
X376029Y11400D01*
X369943Y12446D02*
X374983D01*
X367600Y14789D02*
X369943Y12446D01*
X367600Y14789D02*
Y51799D01*
X361979Y57420D02*
X367600Y51799D01*
X347665Y57420D02*
X361979D01*
X343322Y61763D02*
X347665Y57420D01*
X343322Y61763D02*
Y62731D01*
X340979Y65074D02*
X343322Y62731D01*
X330708Y65074D02*
X340979D01*
X447000Y54000D02*
X466500D01*
X329208Y63574D02*
X330708Y65074D01*
X324248Y63574D02*
X329208D01*
X309594Y48920D02*
X324248Y63574D01*
X307594Y48920D02*
X309594D01*
X307300D02*
X307594D01*
X304800Y46420D02*
X307300Y48920D01*
X304800Y25400D02*
Y46420D01*
X306832Y49682D02*
X307594Y48920D01*
X270002Y49682D02*
X306832D01*
X269240Y50444D02*
X270002Y49682D01*
X592000Y256400D02*
X592082Y256318D01*
Y252869D02*
Y256318D01*
X650900Y129762D02*
X653400Y132262D01*
X657574D01*
X668020Y142708D01*
Y144958D01*
Y147208D01*
X681060Y160248D01*
Y198850D01*
X673560Y206350D02*
X681060Y198850D01*
X670560Y206350D02*
X673560D01*
X592000Y328958D02*
X593496Y330454D01*
X593369Y330581D02*
X593496Y330454D01*
X593242Y353314D02*
X593369Y353187D01*
X487500Y75000D02*
Y90657D01*
X466127Y108500D02*
X469657D01*
X456376Y118251D02*
X466127Y108500D01*
X456376Y118251D02*
Y132192D01*
X464692Y140508D01*
X480060D01*
Y149860D01*
X499618Y169418D01*
X468122Y169164D02*
X468376Y169418D01*
Y201422D01*
X442976Y127278D02*
X460920Y145222D01*
X460976D01*
X493046Y177292D01*
X442976Y125222D02*
Y127278D01*
X142000Y238340D02*
Y258000D01*
Y238340D02*
X142240Y238100D01*
X211328Y192888D02*
X213328D01*
X231500Y211060D01*
Y230000D01*
X223000Y238500D02*
X231500Y230000D01*
X221000Y238500D02*
X223000D01*
X197000D02*
X221000D01*
X195000D02*
X197000D01*
X192500Y241000D02*
X195000Y238500D01*
X192500Y241000D02*
Y242750D01*
X182000Y253250D02*
X192500Y242750D01*
X195250Y295250D02*
X196000Y296000D01*
X200750D01*
X202000Y297250D01*
X205157D01*
X207500Y299593D01*
Y313000D01*
X216000Y321500D01*
X218000D01*
X330708Y46074D02*
X333708D01*
X336554Y48920D01*
X353822D01*
X355600Y47142D01*
Y25400D02*
Y47142D01*
X176700Y99000D02*
Y107000D01*
X175700Y98000D02*
X176700Y99000D01*
X173743Y98000D02*
X175700D01*
X171400Y95657D02*
X173743Y98000D01*
X171400Y80000D02*
Y95657D01*
X174000Y253250D02*
Y258000D01*
X173000Y252250D02*
X174000Y253250D01*
X173000Y230343D02*
X175343Y228000D01*
X181157D01*
X151300Y144696D02*
X159198Y152594D01*
X151300Y107000D02*
Y144696D01*
X138600Y107000D02*
X151300D01*
X138600Y106000D02*
Y107000D01*
X137600Y105000D02*
X138600Y106000D01*
X118000Y105000D02*
X120600Y102400D01*
Y80000D02*
Y102400D01*
X370315Y65161D02*
Y68084D01*
Y65161D02*
X381152Y54324D01*
Y52324D02*
Y54324D01*
X381076Y52248D02*
X381152Y52324D01*
X381076Y25476D02*
Y52248D01*
X381000Y25400D02*
X381076Y25476D01*
X72000Y23000D02*
Y27000D01*
X66000Y33000D02*
X72000Y27000D01*
X21000Y33000D02*
X66000D01*
X21000D02*
Y71000D01*
X19000Y73000D02*
X21000Y71000D01*
X17000Y73000D02*
X19000D01*
X66500Y93000D02*
X72000Y98500D01*
X17000Y93000D02*
X66500D01*
X72000Y98500D02*
Y101188D01*
X78000Y107188D01*
X89154D01*
X49105Y213492D02*
X53855D01*
X487500Y52000D02*
Y75000D01*
X425500Y73000D02*
X447000D01*
X424500Y74000D02*
X425500Y73000D01*
X424500Y74000D02*
Y98000D01*
Y100000D01*
X417576Y106924D02*
X424500Y100000D01*
X417576Y106924D02*
Y125222D01*
X468376Y201422D02*
Y206669D01*
X462500Y212545D02*
X468376Y206669D01*
X462500Y212545D02*
Y231000D01*
X237642Y481584D02*
X238328Y482270D01*
Y507568D01*
X238760Y508000D01*
X493046Y177292D02*
X583692D01*
X442976Y125222D02*
X443738Y124460D01*
Y98762D02*
Y124460D01*
Y98762D02*
X444500Y98000D01*
D71*
X284331Y521034D02*
X284797Y521500D01*
X269389Y521034D02*
X284331D01*
X268923Y521500D02*
X269389Y521034D01*
X252660Y501237D02*
X253608Y500288D01*
Y494500D02*
Y500288D01*
X256859Y526034D02*
X257325Y526500D01*
X204724Y526034D02*
X256859D01*
X252660Y514763D02*
X259397Y521500D01*
X257325Y526500D02*
X270994D01*
X271460Y526034D02*
X282260D01*
X259397Y521500D02*
X268923D01*
X270994Y526500D02*
X271460Y526034D01*
X252660Y501237D02*
Y514763D01*
X254449Y471838D02*
X262846D01*
X274959Y483951D02*
Y491399D01*
X265354Y477938D02*
X270944Y483528D01*
X274959Y491399D02*
X289560Y506000D01*
X270944Y483528D02*
X274536D01*
X289560Y506000D02*
Y508000D01*
Y508000D01*
X274536Y483528D02*
X274959Y483951D01*
X192149Y468016D02*
X216858D01*
X220680Y471838D02*
X243846D01*
X194220Y463016D02*
X218929D01*
X216858Y468016D02*
X220680Y471838D01*
X222605Y466692D02*
X249303D01*
X218929Y463016D02*
X222605Y466692D01*
X249303D02*
X254449Y471838D01*
X243846D02*
X248727Y476719D01*
X261112Y158344D02*
Y170130D01*
X258826Y172416D02*
X261112Y170130D01*
X258826Y172416D02*
Y173228D01*
X259334Y358098D02*
Y358902D01*
X255164Y354732D02*
X255968D01*
X249968Y330232D02*
Y349536D01*
X255968Y354732D02*
X259334Y358098D01*
X249968Y349536D02*
X255164Y354732D01*
X274076Y116388D02*
X283741Y106722D01*
X279076Y118459D02*
X285813Y111722D01*
X355276D02*
X366776Y123222D01*
X283741Y106722D02*
X350478D01*
X359771Y97429D01*
X285813Y111722D02*
X355276D01*
X359771Y97429D02*
X365867D01*
X366014Y97282D01*
X35371Y473010D02*
X98277D01*
X108673Y462614D01*
X79948Y498410D02*
X110744Y467614D01*
X29277Y466916D02*
X35371Y473010D01*
X108673Y462614D02*
X186747D01*
X112699Y457500D02*
X157686D01*
X104209Y449010D02*
X112699Y457500D01*
X110744Y467614D02*
X152908D01*
X176276Y490982D01*
X55434Y449010D02*
X104209D01*
X176276Y490982D02*
X199644D01*
X201422Y492760D02*
Y522732D01*
X199644Y490982D02*
X201422Y492760D01*
X610622Y214884D02*
X620222Y224484D01*
X620776Y184812D02*
X622658Y182930D01*
Y182474D02*
X626466Y178666D01*
X620222Y224484D02*
X620500Y224762D01*
X626922Y178666D02*
X649020Y156568D01*
X626466Y178666D02*
X626922D01*
X622658Y182474D02*
Y182930D01*
X489712Y19050D02*
Y38262D01*
X502158Y50708D02*
Y101600D01*
X388445Y6096D02*
X476758D01*
X489712Y38262D02*
X502158Y50708D01*
X476758Y6096D02*
X489712Y19050D01*
X388249Y5900D02*
X388445Y6096D01*
X605500Y261992D02*
X670500D01*
X623192Y245508D02*
X623225Y245541D01*
X258988Y76696D02*
X266240Y69444D01*
X269240D02*
X272240D01*
X244242Y76696D02*
X258988D01*
X266240Y69444D02*
X269240D01*
X243110Y99568D02*
X261470D01*
X267360Y93678D01*
X236218Y106460D02*
X243110Y99568D01*
X236218Y106460D02*
Y107647D01*
X267360Y90678D02*
Y93678D01*
X279076Y118459D02*
Y131985D01*
X274076Y116388D02*
Y134057D01*
X230218Y113647D02*
X236218Y107647D01*
X260468Y252889D02*
Y270732D01*
X257468Y255889D02*
X260468Y252889D01*
Y251732D02*
Y252889D01*
X231018Y257232D02*
X235518Y261732D01*
X221000Y263500D02*
X227268Y257232D01*
X231018D01*
X247418Y261732D02*
X253261Y255889D01*
X257468D01*
X235518Y261732D02*
X247418D01*
X215000Y263500D02*
X221000D01*
X620500Y224762D02*
Y227762D01*
X590613Y214922D02*
X600139D01*
X600177Y214884D02*
X610622D01*
X600139Y214922D02*
X600177Y214884D01*
X590575D02*
X590613Y214922D01*
X565658Y236220D02*
X586994Y214884D01*
X590575D01*
X585235Y204959D02*
X591839D01*
X556006Y233715D02*
Y442055D01*
X582965Y206756D02*
X583438D01*
X556006Y233715D02*
X582965Y206756D01*
X591839Y204959D02*
X595376Y201422D01*
X583438Y206756D02*
X585235Y204959D01*
X565658Y236220D02*
Y406654D01*
X395478Y329438D02*
X463042D01*
X484632Y351028D01*
X366776Y300736D02*
X395478Y329438D01*
X484632Y351028D02*
Y448564D01*
X451612Y348234D02*
X471932Y368554D01*
X158000Y229425D02*
Y258000D01*
X163000Y227354D02*
Y244450D01*
X164750Y246200D01*
X153670Y210106D02*
Y225095D01*
X159000Y223354D02*
X163000Y227354D01*
X164750Y246200D02*
Y256750D01*
X159000Y206244D02*
Y223354D01*
X158000Y258000D02*
X158000Y258000D01*
X153670Y225095D02*
X158000Y229425D01*
X221488Y127000D02*
Y139306D01*
X218756Y142038D02*
X221488Y139306D01*
X18034Y461010D02*
X23939Y466916D01*
X29277D01*
X620776Y99314D02*
Y125222D01*
X617220Y45180D02*
Y95758D01*
X620776Y99314D01*
X617220Y45180D02*
X635000Y27400D01*
X275500Y211681D02*
Y228924D01*
X289052Y242476D01*
X270500Y230995D02*
X283464Y243959D01*
X270500Y213752D02*
Y230995D01*
X283209Y229562D02*
X294052Y240405D01*
X283209Y212318D02*
Y229562D01*
X249968Y281232D02*
X260468Y270732D01*
X221000Y282500D02*
X223000Y284500D01*
X215000Y282500D02*
X221000D01*
X240500Y304500D02*
Y304500D01*
X223000Y284500D02*
Y287000D01*
X240500Y304500D01*
X251500Y315500D02*
X252000D01*
X240500Y304500D02*
X251500Y315500D01*
X252000D02*
Y334000D01*
X283464Y335026D02*
X350774Y402336D01*
X283464Y243959D02*
Y335026D01*
X314052Y203346D02*
Y276165D01*
X300126Y218290D02*
X309052Y227216D01*
X299052Y236213D02*
Y329278D01*
X297434Y224790D02*
X304052Y231408D01*
X299052Y329278D02*
X365774Y396000D01*
X314052Y276165D02*
X457200Y419313D01*
X309052Y278236D02*
X413512Y382696D01*
X294052Y331472D02*
X360774Y398194D01*
X314052Y203346D02*
X315976Y201422D01*
X289052Y333543D02*
X355774Y400265D01*
X309052Y227216D02*
Y278236D01*
X304052Y231408D02*
Y327166D01*
X289052Y242476D02*
Y333543D01*
X289709Y226870D02*
X299052Y236213D01*
X294052Y240405D02*
Y331472D01*
X304052Y327166D02*
X391160Y414274D01*
X292944Y218290D02*
X300126D01*
X413512Y382696D02*
Y504952D01*
X457200Y419313D02*
Y508000D01*
X262844Y377096D02*
X315468Y429720D01*
Y450850D01*
X308968Y430291D02*
Y453542D01*
X312100Y461960D02*
X312674Y462534D01*
X260773Y382096D02*
X308968Y430291D01*
Y453542D02*
X312100Y456674D01*
Y461960D01*
X64210Y242178D02*
X66260Y240128D01*
X64210Y242178D02*
Y243128D01*
X221488Y127000D02*
X225070Y123418D01*
X228168D02*
X230218Y121368D01*
X225070Y123418D02*
X228168D01*
X230218Y113647D02*
Y121368D01*
X269076Y190516D02*
Y212327D01*
Y190516D02*
X274146Y185446D01*
X274076Y134057D02*
X274146Y134127D01*
Y185446D01*
X269076Y212327D02*
X270500Y213752D01*
X265354Y474346D02*
Y477938D01*
X289560Y508000D02*
X290560Y507000D01*
X350774Y446786D01*
X262846Y471838D02*
X265354Y474346D01*
X259193Y405752D02*
X272148D01*
X257436Y403995D02*
X259193Y405752D01*
X257436Y398780D02*
Y403995D01*
X274964Y408568D02*
X274964D01*
X272148Y405752D02*
X274964Y408568D01*
X274964D02*
X278608Y412211D01*
Y443627D01*
X248727Y476719D02*
Y489619D01*
X186747Y462614D02*
X192149Y468016D01*
X175158Y455016D02*
X186220D01*
X194220Y463016D01*
X373751Y5900D02*
X388249D01*
X373555Y6096D02*
X373751Y5900D01*
X336296Y6096D02*
X373555D01*
X623225Y245541D02*
X647017D01*
X647050Y245574D01*
Y206462D02*
Y223018D01*
X670506Y245520D02*
X670560Y245466D01*
X647104Y245520D02*
X670506D01*
X647050Y245574D02*
X647104Y245520D01*
X670560Y245466D02*
Y261932D01*
X609600Y25400D02*
Y110998D01*
X72800Y320000D02*
X112816D01*
X113030Y319786D02*
X130810D01*
X112816Y320000D02*
X113030Y319786D01*
X145034Y297834D02*
Y325120D01*
X120450Y273250D02*
X145034Y297834D01*
X113250Y273250D02*
X120450D01*
X112000Y272000D02*
X113250Y273250D01*
X490705Y110029D02*
X493729D01*
X482276Y118459D02*
X490705Y110029D01*
X482276Y118459D02*
Y131985D01*
X485772Y135482D01*
X488079Y144780D02*
X648842D01*
X485772Y142473D02*
X488079Y144780D01*
X485772Y135482D02*
Y142473D01*
X648842Y144780D02*
X649020Y144958D01*
X272240Y69444D02*
X284360Y81564D01*
X564642Y415798D02*
X564896Y415544D01*
X589026D01*
X392176Y119868D02*
Y125222D01*
X385014Y112706D02*
X392176Y119868D01*
X385014Y97282D02*
Y112706D01*
X258112Y139344D02*
X261112D01*
X254556Y135788D02*
X258112Y139344D01*
X239306Y135788D02*
X254556D01*
X217806Y142038D02*
X218756D01*
X214556Y145288D02*
X217806Y142038D01*
X212306Y145288D02*
X214556D01*
X212306D02*
Y154788D01*
X284360Y88678D02*
X286360Y90678D01*
X284360Y81564D02*
Y88678D01*
X244242Y11696D02*
Y76696D01*
X151996Y203048D02*
X155753Y199291D01*
X151996Y203048D02*
Y208432D01*
X153670Y210106D01*
X154178Y193548D02*
Y194360D01*
X155753Y195935D01*
Y199291D01*
X119594Y193000D02*
X119634Y193040D01*
X107500Y193000D02*
X119594D01*
X164750Y256750D02*
X166000Y258000D01*
X158496Y205740D02*
X159000Y206244D01*
X119026Y216000D02*
X119126Y215900D01*
X107500Y216000D02*
X119026D01*
X213000Y265500D02*
X215000Y263500D01*
X213000Y265500D02*
Y267000D01*
X208000Y272000D02*
X213000Y267000D01*
X196000Y272000D02*
X208000D01*
X212500Y280000D02*
X215000Y282500D01*
X196000Y280000D02*
X212500D01*
X231758Y398780D02*
X242436D01*
X190158Y357179D02*
X231758Y398780D01*
X181980Y357179D02*
X190158D01*
X175250Y350450D02*
X181980Y357179D01*
X175250Y343250D02*
Y350450D01*
X174000Y342000D02*
X175250Y343250D01*
X192864Y351442D02*
X223518Y382096D01*
X196000Y347507D02*
X225589Y377096D01*
X223518Y382096D02*
X260773D01*
X225589Y377096D02*
X262844D01*
X182000Y346750D02*
X186692Y351442D01*
X192864D01*
X178980Y362179D02*
X180692D01*
X182742Y364230D02*
Y365942D01*
X167250Y350450D02*
X178980Y362179D01*
X182742Y365942D02*
X212420Y395620D01*
Y399974D01*
X180692Y362179D02*
X182742Y364230D01*
X162509Y355907D02*
X169539Y362937D01*
X177781Y371179D02*
X207420Y400818D01*
X171519Y369160D02*
X175762D01*
X169539Y362937D02*
Y367179D01*
X175762Y369160D02*
Y369199D01*
X177742Y371179D02*
X177781D01*
X207420Y400818D02*
Y440216D01*
X169539Y367179D02*
X171519Y369160D01*
X175762Y369199D02*
X177742Y371179D01*
X229260Y416814D02*
X242436D01*
X167250Y343250D02*
Y350450D01*
X212420Y399974D02*
X229260Y416814D01*
X174000Y345958D02*
X174752Y346710D01*
X151250Y350450D02*
X156707Y355907D01*
X162509D01*
X166000Y342000D02*
X167250Y343250D01*
X196000Y328000D02*
Y347507D01*
X205806Y441830D02*
X207420Y440216D01*
X205806Y441830D02*
Y446720D01*
X205232Y447294D02*
X205806Y446720D01*
X257436Y435102D02*
X258309Y435975D01*
Y455819D01*
X259182Y456692D01*
X107500Y169000D02*
Y172000D01*
X105500Y174000D02*
X107500Y172000D01*
X102500Y174000D02*
X105500D01*
X93500Y183000D02*
X102500Y174000D01*
X83550Y183000D02*
X93500D01*
X78550Y188000D02*
X83550Y183000D01*
X63050Y188000D02*
X78550D01*
X61000Y190050D02*
X63050Y188000D01*
X61000Y190050D02*
Y192235D01*
X59243Y193992D02*
X61000Y192235D01*
X49105Y193992D02*
X59243D01*
X88584Y192025D02*
Y192416D01*
X86500Y194500D02*
X88584Y192416D01*
X69000Y194500D02*
X86500D01*
X67701Y194299D02*
X69319D01*
X61508Y200492D02*
X67701Y194299D01*
X49105Y200492D02*
X61508D01*
X88106Y215106D02*
Y216077D01*
X86500Y213500D02*
X88106Y215106D01*
X69000Y213500D02*
X86500D01*
X67500D02*
X69000D01*
X60992Y206992D02*
X67500Y213500D01*
X49105Y206992D02*
X60992D01*
X90951Y240896D02*
X92664Y239183D01*
X78572Y240896D02*
X90951D01*
X77804Y240128D02*
X78572Y240896D01*
X66260Y240128D02*
X77804D01*
X60960Y246378D02*
X64210Y243128D01*
X60960Y246378D02*
Y248628D01*
X59710D02*
X59904Y248434D01*
X51460Y248628D02*
X59710D01*
X51460D02*
Y250878D01*
X48592Y253746D02*
X51460Y250878D01*
X32868Y253746D02*
X48592D01*
X91000Y283500D02*
X94000D01*
X96000Y281500D01*
Y280800D02*
Y281500D01*
Y280800D02*
X103550Y273250D01*
X110750D01*
X112000Y272000D01*
X88000Y283500D02*
X91000D01*
X80128Y275628D02*
X88000Y283500D01*
X70460Y275628D02*
X80128D01*
X26972Y274980D02*
X29972D01*
X24280Y272288D02*
X26972Y274980D01*
X9652Y272288D02*
X24280D01*
X10287D02*
X13868Y268707D01*
Y253746D02*
Y268707D01*
X110114Y296000D02*
X110376Y296262D01*
X82764Y296000D02*
X110114D01*
X75902Y302862D02*
X82764Y296000D01*
X39138Y302862D02*
X75902D01*
X25400Y316600D02*
X39138Y302862D01*
X77570Y308264D02*
X81939Y303896D01*
X52513Y316600D02*
X60849Y308264D01*
X50800Y316600D02*
X52513D01*
X60849Y308264D02*
X77570D01*
X81939Y303896D02*
X111648D01*
X57129Y328600D02*
X72465Y313264D01*
X109913D01*
X50800Y342000D02*
X72800Y320000D01*
X38800Y328600D02*
X57129D01*
X25400Y342000D02*
X38800Y328600D01*
X81904Y363220D02*
X82123Y363000D01*
X69897Y363220D02*
X81904D01*
X56834Y376283D02*
X69897Y363220D01*
X56834Y376283D02*
Y391222D01*
X43434Y404622D02*
X56834Y391222D01*
X43434Y404622D02*
Y406654D01*
X82081Y363042D02*
X93940Y351184D01*
X55125Y360099D02*
X87224Y328000D01*
X112000D01*
X112000Y328000D01*
X93940Y340284D02*
X95990Y338234D01*
X124750D01*
X93940Y340284D02*
Y351184D01*
X39189Y360099D02*
X55125D01*
X43434Y381254D02*
X75697Y348991D01*
X81183D01*
X81940Y348234D01*
X43434Y374650D02*
Y381254D01*
X24836Y374452D02*
X39189Y360099D01*
X18034Y381254D02*
X24638Y374650D01*
X24836Y374452D01*
X126000Y339484D02*
Y342000D01*
X124750Y338234D02*
X126000Y339484D01*
X100940Y348234D02*
X112430D01*
X132750Y343250D02*
Y352644D01*
X112430Y348234D02*
X120050Y355854D01*
X129540D02*
X132750Y352644D01*
X120050Y355854D02*
X129540D01*
X132750Y343250D02*
X134000Y342000D01*
X125580Y345060D02*
X126582Y344058D01*
X144851Y395673D02*
X144851D01*
X123827Y374650D02*
X144851Y395673D01*
X68834Y374650D02*
X123827D01*
X174498Y455676D02*
X175158Y455016D01*
X248727Y489619D02*
X253608Y494500D01*
X171920Y445516D02*
Y455016D01*
X169670Y445516D02*
X171920D01*
X157686Y457500D02*
X169670Y445516D01*
X43434Y461010D02*
X55434Y449010D01*
X310473Y512487D02*
X314960Y508000D01*
X303336Y512487D02*
X310473D01*
X294323Y521500D02*
X303336Y512487D01*
X284797Y521500D02*
X294323D01*
X282726Y526500D02*
X296395D01*
X296861Y526034D02*
X340635D01*
X296395Y526500D02*
X296861Y526034D01*
X282260D02*
X282726Y526500D01*
X340360Y508000D02*
X342392Y510032D01*
Y524277D01*
X340635Y526034D02*
X342392Y524277D01*
X201422Y522732D02*
X204724Y526034D01*
X55434Y498410D02*
X79948D01*
X43434Y486410D02*
X55434Y498410D01*
X443500Y293000D02*
Y295000D01*
Y293000D02*
X446500Y290000D01*
X447000D01*
X456500Y280500D01*
Y263000D02*
Y280500D01*
Y262500D02*
Y263000D01*
X445500Y251500D02*
X456500Y262500D01*
X440000Y251500D02*
X445500D01*
X422500Y234000D02*
X440000Y251500D01*
X422500Y231000D02*
Y234000D01*
Y228000D02*
Y231000D01*
X417576Y223076D02*
X422500Y228000D01*
X417576Y201422D02*
Y223076D01*
X392176Y201422D02*
Y216676D01*
X403500Y228000D01*
Y231000D01*
Y234000D01*
X407500Y238000D01*
Y263000D01*
X400500Y270000D02*
X407500Y263000D01*
X400500Y270000D02*
Y295000D01*
X620776Y184812D02*
Y201422D01*
X649020Y144958D02*
Y156568D01*
X658520Y171958D02*
Y196768D01*
X648938Y206350D02*
X658520Y196768D01*
X646938Y206350D02*
X648938D01*
X646938D02*
X647050Y206462D01*
X670500Y261992D02*
X670560Y261932D01*
X612242Y353314D02*
X612766Y353838D01*
Y372602D01*
X613290Y373126D01*
X663500Y426000D02*
X665000D01*
X649000Y440500D02*
X663500Y426000D01*
X638000Y440500D02*
X649000D01*
X661300Y480500D02*
X665000Y476800D01*
X638000Y480500D02*
X661300D01*
X544576Y201422D02*
Y452628D01*
X551006Y220392D02*
Y444147D01*
Y220392D02*
X569976Y201422D01*
X551006Y444147D02*
X580286Y473426D01*
X544576Y452628D02*
X584200Y492252D01*
X556006Y442055D02*
X580296Y466345D01*
X519176Y201422D02*
Y441452D01*
X558038Y480314D01*
X620500Y201698D02*
X620776Y201422D01*
X620500Y201698D02*
Y224206D01*
X493729Y110029D02*
X502158Y101600D01*
X330200Y12192D02*
X336296Y6096D01*
X330200Y12192D02*
Y25400D01*
X150000Y342000D02*
X151250Y343250D01*
Y350450D01*
X589026Y415544D02*
X624882Y451400D01*
X665000D01*
X614172Y449834D02*
Y461416D01*
X569214Y438912D02*
X603250D01*
X614172Y449834D01*
X562763Y427482D02*
X563372D01*
X561006Y429239D02*
X562763Y427482D01*
X561006Y429239D02*
Y439896D01*
X570766Y449656D01*
X575536D01*
X587296Y461416D01*
X590296D01*
X182000Y342000D02*
Y346750D01*
X355760Y448871D02*
X355774Y448857D01*
X355760Y448871D02*
Y467200D01*
X360760Y450942D02*
X360774Y450928D01*
X360760Y450942D02*
Y487600D01*
X365774Y396000D02*
Y452999D01*
X360774Y398194D02*
Y450928D01*
X314960Y508000D02*
X355760Y467200D01*
X355774Y400265D02*
Y448857D01*
X365760Y453013D02*
Y508000D01*
X340360D02*
X360760Y487600D01*
X350774Y402336D02*
Y446786D01*
X365760Y453013D02*
X365774Y452999D01*
X604929Y480100D02*
X616856D01*
X619172Y482416D01*
X600296Y475466D02*
Y475466D01*
X604929Y480100D01*
X593256Y468426D02*
X600296Y475466D01*
X582357Y468426D02*
X593256D01*
X580296Y466366D02*
X582357Y468426D01*
X580286Y473426D02*
X580306D01*
X580296Y466345D02*
Y466366D01*
X580306Y473426D02*
X587296Y480416D01*
X670020Y187350D02*
X670560D01*
X668020Y185350D02*
X670020Y187350D01*
X668020Y171958D02*
Y185350D01*
X666770Y170708D02*
X668020Y171958D01*
X666770Y163812D02*
Y170708D01*
X662142Y159184D02*
X666770Y163812D01*
X662142Y158372D02*
Y159184D01*
X626110Y461264D02*
X626346Y461500D01*
X638000D01*
X285813Y187922D02*
X333540D01*
X315976Y127222D02*
X327660Y138906D01*
Y178816D01*
X315976Y125222D02*
Y127222D01*
X279076Y208185D02*
X283209Y212318D01*
X279076Y194659D02*
X285813Y187922D01*
X274076Y192588D02*
X279146Y187518D01*
X274076Y210257D02*
X275500Y211681D01*
X290576Y215922D02*
X292944Y218290D01*
X290576Y201422D02*
Y215922D01*
Y125222D02*
Y127222D01*
X303022Y139668D01*
Y178054D01*
X279076Y194659D02*
Y208185D01*
X274076Y192588D02*
Y210257D01*
X279146Y132055D02*
Y187518D01*
X333540Y187922D02*
X341376Y180086D01*
Y125222D02*
Y180086D01*
X391160Y414274D02*
Y508000D01*
X279076Y131985D02*
X279146Y132055D01*
X366776Y123222D02*
Y125222D01*
X595376D02*
X609600Y110998D01*
X635000Y25400D02*
Y27400D01*
X508000Y25400D02*
Y108998D01*
X493776Y123222D02*
X508000Y108998D01*
X493776Y123222D02*
Y125222D01*
X533400Y25400D02*
Y108998D01*
X519176Y123222D02*
X533400Y108998D01*
X519176Y123222D02*
Y125222D01*
X558800Y25400D02*
Y108998D01*
X544576Y123222D02*
X558800Y108998D01*
X544576Y123222D02*
Y125222D01*
X584200Y25400D02*
Y108998D01*
X569976Y123222D02*
X584200Y108998D01*
X569976Y123222D02*
Y125222D01*
X413512Y504952D02*
X416560Y508000D01*
X482600Y506000D02*
Y508000D01*
X472969Y496369D02*
X482600Y506000D01*
X472969Y368554D02*
Y496369D01*
X471932Y368554D02*
X472969D01*
X393192Y348234D02*
X451612D01*
X341376Y296418D02*
X393192Y348234D01*
X341376Y201422D02*
Y296418D01*
X508000Y490118D02*
Y508000D01*
Y490118D02*
X512826Y485292D01*
Y472927D02*
Y485292D01*
X511069Y471170D02*
X512826Y472927D01*
X507238Y471170D02*
X511069D01*
X484632Y448564D02*
X507238Y471170D01*
X366776Y201422D02*
Y300736D01*
X632013Y505013D02*
X635000Y508000D01*
X632013Y495257D02*
Y505013D01*
X619172Y482416D02*
X632013Y495257D01*
X619172Y482416D02*
Y482416D01*
X558038Y480314D02*
Y507238D01*
X584200Y492252D02*
Y508000D01*
X493776Y201422D02*
Y431800D01*
X532913Y470937D02*
Y507513D01*
X493776Y431800D02*
X532913Y470937D01*
Y507513D02*
X533400Y508000D01*
X609600Y507720D02*
Y508000D01*
X590296Y488416D02*
X609600Y507720D01*
X590296Y480416D02*
Y488416D01*
X587296Y480416D02*
X590296D01*
X558038Y507238D02*
X558800Y508000D01*
D72*
X50800Y342000D02*
D03*
X18034Y461010D02*
D03*
Y381254D02*
D03*
D73*
X25400Y342000D02*
D03*
X50800Y316600D02*
D03*
X25400D02*
D03*
X43434Y461010D02*
D03*
X68834D02*
D03*
X18034Y486410D02*
D03*
X43434D02*
D03*
X68834D02*
D03*
Y406654D02*
D03*
X43434D02*
D03*
X18034D02*
D03*
X68834Y381254D02*
D03*
X43434D02*
D03*
D74*
X146000Y369800D02*
D03*
Y395200D02*
D03*
Y420600D02*
D03*
X665000Y426000D02*
D03*
Y451400D02*
D03*
D75*
X146000Y446000D02*
D03*
X665000Y476800D02*
D03*
D76*
X22355Y233492D02*
D03*
Y167492D02*
D03*
D77*
X187960Y508000D02*
D03*
X213360D02*
D03*
X238760D02*
D03*
X264160D02*
D03*
X289560D02*
D03*
X314960D02*
D03*
X340360D02*
D03*
X365760D02*
D03*
X391160D02*
D03*
X146000Y80000D02*
D03*
X171400D02*
D03*
X635000Y25400D02*
D03*
X609600D02*
D03*
X584200D02*
D03*
X558800D02*
D03*
X533400D02*
D03*
X457200Y508000D02*
D03*
X482600D02*
D03*
X508000D02*
D03*
X533400D02*
D03*
X558800D02*
D03*
X584200D02*
D03*
X609600D02*
D03*
X595376Y201422D02*
D03*
X569976D02*
D03*
X544576D02*
D03*
X519176D02*
D03*
X493776D02*
D03*
X468376D02*
D03*
X442976D02*
D03*
X417576D02*
D03*
X392176D02*
D03*
X366776D02*
D03*
X341376D02*
D03*
X315976D02*
D03*
X290576D02*
D03*
X620776Y125222D02*
D03*
X595376D02*
D03*
X569976D02*
D03*
X544576D02*
D03*
X519176D02*
D03*
X493776D02*
D03*
X468376D02*
D03*
X442976D02*
D03*
X417576D02*
D03*
X392176D02*
D03*
X366776D02*
D03*
X341376D02*
D03*
X315976D02*
D03*
X290576D02*
D03*
X304800Y25400D02*
D03*
X330200D02*
D03*
X355600D02*
D03*
X381000D02*
D03*
X406400D02*
D03*
X431800D02*
D03*
X457200D02*
D03*
D78*
X416560Y508000D02*
D03*
X120600Y80000D02*
D03*
X508000Y25400D02*
D03*
X635000Y508000D02*
D03*
X620776Y201422D02*
D03*
X279400Y25400D02*
D03*
D79*
X21000Y128000D02*
D03*
Y33000D02*
D03*
D80*
X660400Y366014D02*
D03*
X139700Y25400D02*
D03*
X659892Y77470D02*
D03*
D81*
X131826Y508508D02*
D03*
D82*
X215646Y475996D02*
D03*
X114300Y258064D02*
D03*
X150622Y275844D02*
D03*
X258826Y173228D02*
D03*
X199390Y426720D02*
D03*
X477266Y88646D02*
D03*
X384556Y72390D02*
D03*
X344932Y81534D02*
D03*
X291846Y70358D02*
D03*
X227838Y423672D02*
D03*
X217170Y417830D02*
D03*
X165100Y423672D02*
D03*
X44958Y435102D02*
D03*
X49530Y512064D02*
D03*
X60452Y278638D02*
D03*
X629158Y185166D02*
D03*
X173228Y188722D02*
D03*
X217170Y351790D02*
D03*
X202946Y123444D02*
D03*
X262890Y109474D02*
D03*
X208534Y206502D02*
D03*
X248158Y203708D02*
D03*
X58928Y218565D02*
D03*
X59944Y227838D02*
D03*
X628650Y105410D02*
D03*
X479806Y29972D02*
D03*
X315468Y450850D02*
D03*
X312674Y462534D02*
D03*
X130810Y319786D02*
D03*
X145034Y325120D02*
D03*
X499618Y169418D02*
D03*
X468122Y169164D02*
D03*
X89408Y118364D02*
D03*
X89154Y107188D02*
D03*
X564642Y415798D02*
D03*
X154178Y193548D02*
D03*
X119634Y193040D02*
D03*
X158496Y205740D02*
D03*
X119126Y215900D02*
D03*
X205232Y447294D02*
D03*
X565658Y406654D02*
D03*
X583692Y177292D02*
D03*
X563372Y427482D02*
D03*
X569214Y438912D02*
D03*
X662142Y158372D02*
D03*
X626110Y461264D02*
D03*
X327660Y178816D02*
D03*
X289709Y226870D02*
D03*
X303022Y178054D02*
D03*
X297434Y224790D02*
D03*
M02*
